<?xml version="1.0" encoding="UTF-8"?>
<svg id="Layer_2" data-name="Layer 2" xmlns="http://www.w3.org/2000/svg" viewBox="0 0 113.94 101.03">
  <defs>
    <style>
      .cls-1 {
        fill: #0069b5;
      }

      .cls-2 {
        opacity: .3;
      }

      .cls-3 {
        fill: #fff;
      }
    </style>
  </defs>
  <g id="Layer_3" data-name="Layer 3">
    <g>
      <path class="cls-1" d="M112.94,35.57c-.37-1.25-.89-2.5-1.53-3.72-.62-1.18-1.43-2.35-2.46-3.57-.9-1.07-1.97-2.13-3.28-3.23-1.05-.89-2.25-1.8-3.67-2.76-1.26-.86-2.56-1.65-4.12-2.57-1.48-.87-3.05-1.75-4.67-2.62-3.25-1.75-6.55-3.35-9.81-4.75-1.64-.7-3.3-1.36-4.92-1.96-.77-.28-1.55-.56-2.33-.83-.68-.24-1.36-.47-2.03-.7l-.44-.15c-7.99-2.73-14.25-4.58-20.27-6-3.53-.83-7-1.49-10.32-1.95-1.7-.24-3.43-.43-5.15-.56-1.65-.13-3.16-.19-4.64-.19-2.72,0-5.4.24-7.97.73-2.49.47-4.9,1.2-7.17,2.17-2.21.95-4.28,2.17-6.15,3.63-1.84,1.43-3.51,3.15-4.94,5.1-.7.95-1.34,1.98-1.96,3.14-.53.99-1.03,2.09-1.53,3.38-.86,2.23-1.6,4.66-2.18,7.23-.58,2.54-.98,5.17-1.2,7.82-.23,2.7-.25,5.42-.06,8.1.4,5.65,1.73,10.68,3.97,14.96.58,1.11,1.24,2.18,1.96,3.18.67.92,1.43,1.82,2.26,2.67,1.51,1.56,3.38,3.01,5.54,4.33,1.89,1.15,4.04,2.18,6.58,3.15,2.13.82,4.53,1.57,7.33,2.29.72.19,1.45.35,2.17.52.16.04.32.08.48.13.04.01.08.02.12.03.48.15.97.28,1.46.41.58.15,1.17.28,1.76.41,1.73.49,3.47.98,5.22,1.44,4.1,1.09,8.24,2.05,12.46,2.66-1.42,2.65-3.28,5.19-5.53,7.57-2.66,2.78-5.82,5.3-9.38,7.48h0c-2.1,1.27-4.32,2.41-6.59,3.39-.09.04-.16.11-.19.19-.03.09-.03.18.02.26.02.04.05.07.09.1.06.09.15.15.26.17.94.11,1.92.17,2.92.17,3,0,6.26-.5,10.27-1.56,1.85-.49,3.83-1.1,6.25-1.92,2.06-.7,4.09-1.48,6.04-2.33,2.84-1.24,5.48-2.62,7.83-4.1,1.24-.78,2.44-1.63,3.58-2.51,1.07-.83,1.94-1.55,2.71-2.37,2.53.74,5.34,1.17,8.35,1.27.42.01.83.02,1.25.02,2.57,0,5.15-.26,7.69-.77,1.37-.28,2.77-.66,4.16-1.14,1.34-.46,2.63-1.03,3.82-1.68,1.17-.64,2.34-1.44,3.46-2.38,1-.84,1.98-1.82,3-3,1.64-1.89,3.12-4.07,4.82-7.06,1.38-2.44,2.6-4.87,3.62-7.22,1.16-2.69,2.1-5.4,2.79-8.07.75-2.87,1.17-5.68,1.26-8.33.1-2.85-.23-5.57-.98-8.07Z"/>
      <path class="cls-1" d="M91.86,84.83c-.11,0-.22.04-.28.1-.02.02-.05.05-.06.08-.02.02-.04.04-.05.06-.05.08-.06.15-.04.26.17.88.36,1.75.54,2.63l.26,1.27c.14.65.27,1.3.39,1.95l.03.16c.09.49.19.99.27,1.48h0c.05.35.1.7.14,1.05.14,1.07.29,2.18.58,3.25.21.78.47,1.44.82,2.02.15.25.35.51.6.79.24.26.54.5.94.74.31.19.67.31,1.02.35.08,0,.15.01.22.01.08,0,.17,0,.25-.02.15-.02.31-.07.5-.15.14-.06.26-.15.38-.24.13-.11.24-.23.33-.35.11-.13.19-.26.27-.43.09-.17.17-.37.25-.61.18-.57.25-1.23.2-1.96-.04-.63-.17-1.31-.41-2.07-.27-.86-.67-1.79-1.24-2.83-.48-.89-1.08-1.83-1.81-2.86-1.1-1.55-2.4-3.1-3.84-4.59-.06-.06-.15-.1-.26-.1"/>
      <path class="cls-1" d="M98.46,83.41c-.18,0-.33.1-.37.25-.04.11,0,.23.09.32,0,.08.04.14.11.21l.29.31c.36.41.68.83.95,1.18l.18.24c.15.19.29.38.43.57.22.31.43.61.63.92l.1.15c.61.91,1.32,1.97,2.1,2.97.41.53.83,1.04,1.26,1.5.44.48.87.88,1.31,1.22.47.37.92.62,1.37.79.21.08.41.13.62.15.11.01.22.02.32.02.14,0,.28-.01.43-.04.19-.03.4-.1.63-.22.19-.1.38-.23.56-.38.29-.24.49-.55.59-.89.18-.59,0-1.29-.52-2.07-.28-.41-.61-.78-.91-1.09-.34-.34-.73-.7-1.2-1.09-.81-.67-1.75-1.33-2.96-2.09-1.14-.72-2.32-1.38-3.51-1.97-.52-.26-.99-.47-1.41-.64-.34-.14-.67-.27-1-.34-.03,0-.07-.01-.1-.01"/>
      <g class="cls-2">
        <path class="cls-3" d="M9.65,12.93c-1.07,2.94-2.04,5.91-2.81,8.92-.78,3.05-1.37,6.13-1.7,9.24-.32,3.01-.35,6.05-.1,9.07.24,2.94.81,5.89,1.82,8.71.88,2.45,2.01,4.85,3.56,7.04,1.64,2.32,3.66,4.42,6.05,6.16,1.31.96,2.68,1.82,4.14,2.6,1.69.89,3.47,1.6,5.29,2.25,2.08.73,4.22,1.35,6.36,1.95,1.07.3,2.14.59,3.21.89,1.16.33,2.32.68,3.49.97,1.1.28,2.31-.17,2.89-1.04.68-1.02.32-2.53-.92-3.1-2.37-1.08-4.98-1.74-7.53-2.41-2.32-.61-4.64-1.22-6.88-2.03-2.68-1.03-5.23-2.3-7.56-3.86-1.84-1.3-3.55-2.78-5.02-4.41-1.52-1.78-2.83-3.7-3.83-5.76-1.25-2.72-2.06-5.58-2.53-8.48-.68-4.71-.47-9.48.23-14.18.65-4.13,1.66-8.22,3.09-12.2.11-.3-.12-.63-.45-.71-.06-.01-.11-.02-.17-.02-.28,0-.54.17-.63.42M7.79,25.5s0,.04,0,.06c0-.02,0-.04,0-.06M7.59,39.67s.01.09.02.13c0-.04-.01-.09-.02-.13M10,47.87s.04.08.06.12c-.02-.04-.04-.08-.06-.12"/>
      </g>
      <g class="cls-2">
        <path class="cls-3" d="M43.53,69.81c0,.93.87,1.7,1.92,1.7s1.92-.77,1.92-1.7-.87-1.7-1.92-1.7-1.92.77-1.92,1.7"/>
      </g>
      <g class="cls-2">
        <path class="cls-3" d="M64.21,80.56c-.75.57-1.47,1.17-2.21,1.75-.79.62-1.6,1.23-2.42,1.82-.83.61-1.67,1.2-2.51,1.79-.82.57-1.65,1.14-2.5,1.67-.34.21-.69.43-1.03.64.04-.02.07-.04.11-.07-1.05.65-2.12,1.27-3.22,1.85-1.11.58-2.23,1.14-3.39,1.63-.12.05-.17.2-.11.3.06.11.22.15.34.1,1.59-.66,3.21-1.26,4.8-1.91.82-.33,1.64-.68,2.46-1.02.86-.36,1.71-.76,2.55-1.16,1.69-.79,3.31-1.71,4.84-2.72.71-.47,1.39-.98,2.05-1.5.34-.27.67-.55.99-.83.37-.32.69-.68,1.01-1.03.11-.15.17-.32.18-.51.01-.27-.1-.54-.31-.75-.23-.22-.54-.33-.85-.33-.29,0-.57.09-.81.27M54.66,87.54l-.05.03.05-.03Z"/>
      </g>
      <g class="cls-2">
        <path class="cls-3" d="M89.94,19.06c-.09.11-.06.3.09.37,3.61,1.79,7.14,3.78,10.27,6.18,0,0-.02-.01-.02-.02,1.93,1.51,3.7,3.18,5.13,5.07.95,1.31,1.7,2.71,2.27,4.18.45,1.24.71,2.52.84,3.82.13,1.92-.07,3.81-.46,5.7-.12.52-.26,1.04-.32,1.57-.08.69.48,1.36,1.2,1.57.88.26,1.95-.17,2.22-.99.17-.53.36-1.04.51-1.58.17-.67.31-1.36.39-2.05.15-1.16.11-2.33-.02-3.49-.11-1-.36-1.99-.72-2.95-.19-.52-.4-1.03-.63-1.53-.22-.47-.47-.92-.74-1.37-.54-.91-1.2-1.75-1.89-2.57-.67-.79-1.4-1.54-2.18-2.25-1.62-1.49-3.41-2.82-5.28-4.06-3.23-2.15-6.73-3.96-10.26-5.7-.06-.03-.12-.04-.17-.04-.09,0-.18.04-.24.12M100.31,25.63s.05.04.07.06c-.02-.02-.05-.04-.07-.06M107.6,34.63s.04.1.05.14c-.02-.05-.04-.1-.05-.14"/>
      </g>
    </g>
  </g>
</svg>