<svg xmlns="http://www.w3.org/2000/svg" viewBox="0 0 1714.54 2549.32"><defs><style>.cls-1{fill:#fff;fill-rule:evenodd;}</style></defs><title>pattern</title><g id="Layer_2" data-name="Layer 2"><g id="Layer_1-2" data-name="Layer 1"><path class="cls-1" d="M1714.54,18c-.09,24.41-5.46,35.8-9.08,56l-2.19,73,0,48.51-.13,56.51,3.39,34.88c2.14,10.86,5,18.18,4.84,32.07l-.79,29.66-1.87-1.43-6.49-9c-5.38-8.29-9.42-18.43-12.41-28.85-7.49-26.12-3.51-57.49-8-87.68l.21-19.78-.14-31.08.76-71.1c.2-18.75,1.1-37.79-3.21-52.3-4.18-14-14.08-19.89-21.82-29.9Zm-4.65,435.55c-34.31-1.89-72-24.27-88.05-44.73-13.49-17.14-26.95-34.35-36.14-56-25.27-59.47-30.42-132.73-44.44-204.38Q1531.14,82.21,1521,15.92l18.37.2,28.41,161.82c21.12,101.6,26.41,197.83,104.29,244.58,11.25,6.75,24.24,9.6,38,14.06Zm-.38,35.78-.25,24c-97.08-14.66-146.75-33.84-189.15-103.26-15.21-24.91-27.12-53.82-36.31-84.21-9.8-32.45-15.28-67.23-27.69-96.84-23.8-56.76-69.3-99.08-130.59-119.12L1298.28,103c-75-16.47-55.31,59.2-69.89,107.57-11.92,39.53-28.42,75-57.08,97.34-41.15,32.08-90.94,49.47-151.83,62.42l-61.3,7.36-110.7,4c-18,2.73-34.34-.13-48.1,5.61-25.84,10.77-34.25,47.61-45.52,73.44-20.21,46.39-43.72,93-73.9,129.66-15.32,18.63-39.33,33.85-65.89,40.74-24.85,6.45-57.27-5.42-51.21,33.36,13.48,86.31,64.8,95.77,140.94,119.23,37,11.39,77,19.93,108.81-2.61,65-46,67.17-152.1,147.46-183,36.92-14.21,92.36-5.9,123.3,7.91,71.89,32.09,91.73,84.44,109.33,169.28,5.19,25,10.43,58.2,6.13,87.66l-1.89.45c-2.79-28-10-55.94-17.5-80.72C1158.58,713.51,1138,656.87,1075.12,629c-20.66-9.16-61.82-23-93.08-15.59-54.76,13-66.85,63-92.48,105.91-19,31.83-40.81,65.07-70.61,85.89-31.29,21.86-79.35,25.36-118.16,40.19C649,865.2,604,895.14,562.43,925.87c-26.1,19.28-50.83,43.54-70,69.89l-41.65,64.07a281.21,281.21,0,0,1-67.57,65.68c-25.66,17.8-56.86,29.28-89.43,40-20.29,6.68-40.61,10.82-57.67,20.57-30.5,17.43-54.5,41.93-72.82,71.75-28.48,46.37-44.34,103.51-61.06,162.28-14,49.22-21.81,100.15-39.69,144.62-12.59,31.33-24.71,58.44-41.39,84.32L9.69,1665.9H9.22l.39-36.73C18,1613.25,28.38,1597,36,1579.54c11.52-26.25,17.84-54.13,25.86-84.49,5.19-19.65,10.13-50.64-.22-67.34-9.1-14.68-29-19.84-49.67-23.14l.25-24c29.37.65,50.18,3.27,69.34-10.09,18.81-13.13,23.45-44.8,32.74-67.47,15.79-38.55,36.63-79.42,67-103.35,18.3-14.41,36.92-29.13,59.75-38.92,49.16-21.09,103.89-34.7,144.78-63.92,24.75-17.69,45.88-40.54,60.53-68.58,2.69-5.14,14-23.47,9.77-32.38-4.05-8.59-21.47-9.42-33.83-7.43-21.61,3.48-45.21,1-68.33,4.45l-40,.52-29.65-1.73c-23.14-4-44.87-5.63-64.86-12-13.11-4.17-34.82-16.41-52.64-9.51-18.73,7.24-19.71,35.83-30.68,51-23.29,32.21-65.29,48.79-120.6,48.16l.24-22.13c44.49,1.23,88.23-14.47,102.19-45.06,7.54-16.51,10.74-43.1,3.49-62.12C104.56,895.57,69.69,829.47,18.24,820.24l.26-24.49c55.16,4,80.14,52.3,105,86.83,15.95,22.12,35,43.12,58.72,57.6,20.29,12.38,44.32,19.27,70.83,25.72l49.38,6.17c20.59,3.67,54.48,1.9,73-1.1,31.51-5.1,58.78-6.83,84.47-16.53,47.89-18.07,84.75-46.55,125.56-71.65l61.14-36.55c9.47-5.82,22.2-12.62,25.22-24.69,4.49-18-16.57-22.42-27-26.66-33.21-13.44-62.31-28.28-79.92-56.89-22.35-36.3-32.39-83.7-56.67-117.86C471.65,568.66,416,530.73,348.36,509.66c-20.63-6.44-41.39-7.41-65.34-11.53-22-3.78-51-2.94-72.52.64-18.2,3-36.32,4.56-52.84,9.32-33.89,9.77-59.77,26.18-86.17,43.35-13.44,8.74-33.69,24.22-50.69,27.72L21,558c29.05-13.27,51.8-55.05.67-62.63l.25-24c32.65,1.69,66.51,5.42,102.13,5.8l34.85-.1c56.36-8.5,129.43-10,181.26,3.81,43,11.46,80.78,26.54,111.55,49.7,28.34,21.32,49.83,49.59,84.54,64.94,37.85,16.74,86.21,14,115-8.19,27.88-21.53,43.78-60,60.79-92.59,8.54-16.35,16.31-32.8,24.08-50.14,4.78-10.65,10.93-20.84,13.55-33.76,3.36-16.63-9-24.54-26.14-21.94-35.92,5.45-87.2,7.83-119.58-2.68-57.08-18.53-90.82-68-107.91-125.95-20.11-68.18,7.1-146.21,48-175.61C597.9,46,647.18,89.76,676,122.29l39,48.45c35.82,46.08,79.81,79.76,142.57,99.94,19.86,6.38,59.09,16.66,87.93,12.24l42.44-5.2c53.66-12.8,96.17-35.16,122.3-75.93,11.54-18,19.1-40.37,26.1-62.82,1.81-5.81,4.58-25.73,8.77-27.69-3.74,104.1-60.12,160.29-143.24,184.48-25.73,7.49-71.09,15.07-105.11,8.77-18.27-3.38-35.61-5.31-52.16-10.44-31.61-9.81-60.42-21.33-84.35-38.57-31.37-22.6-58.68-52.8-81.52-83.75-18.79-25.46-37.33-56.45-68.48-69.49-22.6-9.46-44.57,4.37-54.81,16.84-22.67,27.65-44.84,73.36-32,126.34,11.7,48.09,36.41,99,78.33,117.62,28.19,12.53,91.72,11.18,127.09,5.59l99.45-8.83,37.69-1.48,20.72.22,56.54-3.16c23.94-3.75,46.8-2.2,68.83-6.81,81.57-17.05,154-41.3,183.9-111C1212.6,199,1215.37,150.14,1216,95.08l-1.48-82.42,21.66.23c1,55.64,57.79,61.15,99.48,77.82,29.46,11.77,56.25,25.52,79.59,43.23,42.73,32.42,64.1,79.24,81.42,137,8.26,27.49,13.23,55.7,23.63,80.77,29.27,70.55,63.29,110.52,145.06,130.58C1678.56,485.5,1693.93,488.83,1709.51,489.31Zm-.93,87.11-.22,21.19c-18.23,4.54-35.85,8.67-57.58,12.1-26.85,4.25-71.52-2-94.11-6.65l-93.08-15.12-32.46-3.17c-14.62-2.58-33.49-.61-46.17,1.39L1343,589c-30.84,4.92-76.32,7.87-106.89-.2-33-8.7-60.7-23.64-91-35.81-58.2-23.4-153.52-40.92-230.94-25.54C872,535.84,836.68,545.65,805,564L771.38,584.8l-20.89,15.79H750c5.08-15.14,42-44.92,56.14-53.55,57.63-35.25,173.57-55.48,264.09-35.33,48.46,10.78,87.82,26.69,128.56,43.28,24.55,10,106.89,28.36,135.51,11.33,22.61-13.45-.68-43.15-8.35-56.6l-8.25-21.27c-6.28-16.85-8.65-37.12-12.1-57.11l-1.52-34.87.32-29.19,1.27-31.54,3.37-50.35,2.17-27.29c4.84-26.24,8.08-48.22,20.48-65.71l1.41,0,.47.47c-9,28.81-5.76,61.85-11.36,94.06l-.86,36.25.08,36.74,1,33.91c3.6,23.59,4.43,46.52,10.59,67,26.67,88.68,94.84,97.14,189,117.85,42.53,9.36,100.26,18.68,148.24,9.12C1684.41,585,1696.44,580.05,1708.58,576.42Zm-1.09,103.12-.16,14.6c-56.83.22-101-19.52-148.95-30.79-30.26-7.11-70.12-2.84-91,8.92-55.32,31.21-80,94.94-107.14,154.73-39.3,86.67-89.44,163.26-127.93,251-26.84,61.21-43.47,135.19-97.87,168.49-26.06,16-73.49,23.72-115.06,14.78-57.2-12.31-104.09-33-160.54-47.86-40.15-10.59-92.87-18.35-123.9,5.27-23.63,18-34.75,59.79-27,103.32,9.88,55.51,26.2,101.22,45.53,146.46,14.41,33.71,36.86,61.33,67,79.83,26.25,16.14,59,24.15,88.6,37.21a273.22,273.22,0,0,1,58,35c35.84,28.13,60.78,70.83,79.29,115.75,12.44,30.18,19.16,64.69,34.82,91.73,16.73,28.88,40.71,43.66,74.21,18.21,19.62-14.91.35-43.22-6.93-57-19.1-36.3-50.88-106.75-38.26-165.7,6.77-31.64,20.28-53.24,47.3-64,14.65-5.84,55.33-4.44,58.61-20.1,2-9.56-7.4-15.22-11.09-19.89l-46.09-50.41c-41.77-53.31-89.86-103.49-162.05-127-24.45-8-52.06-10.58-79.41-15.92L878,1322v-1.41l.48-.46c44.37-.75,93.41-4.42,131.77,7.52,68.68,21.39,118,68.23,157,118.93,19.09,24.84,40.09,51.47,64.23,71.32,13.08,10.77,26.07,21.12,41.12,30.11,33.21,19.84,79.93,25.52,123.48,34.75l54.08,6.7c51.69,9.82,97.4,15.15,120.47,52.14,28,44.91-.12,109.08-14.79,150.53-25,70.62-44.44,146.78-80.38,206.82-12.08,20.19-24.49,40-38.29,58.46-13.09,17.49-29.6,33.42-34.54,59-4.28,22.16,14.45,61.31,19.88,79.33,16.81,55.84,17.56,142.54-13.28,184.93-25.46,35-73.8,36.32-117.82,52.89-46.38,17.47-81.76,46.55-82.17,110.74l-21.66-.24c.15-86.65,53-110.65,115.38-133.45,29.06-10.62,58.42-14.62,80.39-31.63,17.27-13.37,25.12-36,30.33-61.84,5-24.65,2.79-57.62-1.5-80.07-11-57.67-19.92-113.5-77.31-125.62-20.75-4.38-43,2.92-58.47,7.39-34.86,10.05-63.62,19.94-102.94,26.21-53.93,8.6-107.3-25.84-155.33-6.36-16.65,6.75-29.24,19.56-39.9,32.54-16.41,20-37.53,38.24-65.48,46.39-8.23,2.39-21.67,5.06-33.47,2.94C817.12,2209.3,787.09,2161,755,2120.27c-21.59-27.41-71.11-48.4-110.52-58.16l-.46-.94,1-1.4c18.81-2.72,37.62,1.59,51.73,6.2,26.37,8.61,43.65,19.7,62.26,35l16.28,19c12.1,15.57,25.6,31.81,41,44.23,16.26,13.15,45.33,37.16,78.77,31.92,58.1-9.11,68-65.56,125.65-80.6,53.23-13.88,106.12,13.78,162.42,4.08,35.88-6.17,68-14.91,100.57-24.35,34.45-10,70.11-16.13,99.22-31.44,12.48-6.56,23-15.27,33.69-23.66,47.57-37.32,79.93-135.31,101.51-201.41L1553.62,1729c5.29-15.48,12.59-39.25,5.32-57.4-22.55-56.27-76-51-141.54-63.66l-69.11-11.1c-43.19-9.52-85.51-16.39-131.12-24.47-48.73-8.64-75.72,20.25-85.34,54.18-15.21,53.6,21,131.32,41.61,161,8,11.49,21.69,31,43.51,26.36,18.74-3.94,30.34-25.29,39.51-39.6,17.76-27.75,31-58,63.38-70.91,11.66-4.62,30.33-5.79,43.82-1.88,50.11,14.51,67.35,76.11,42.87,130.89-27.6,61.78-85,84.18-151.36,106.7-67.18,22.8-138.46,38.58-213.43,54.24-22,4.59-45.37,4.15-68.83,7.74l-39.1.52c-58.3-.61-107.72-10.84-149.92-28-13.49-5.48-41.79-14.38-48.23-25.48v-.47l22.51,8.72,39.44,11.25c29.26,8.47,60,11.14,92.12,17l38.59,1.83c35.79.38,67.83-1.73,97.1-7.92,84.35-17.82,163.13-37.94,238-66.21,55.56-21,98.08-33.35,124.75-84.38,8.15-15.59,17-43,10.13-66.29-8.35-28.36-42.17-59.36-77.77-37.56-14.51,8.88-23.83,24.24-33.38,38.26-15.79,23.2-31.58,48.79-53.44,65.83-49.58,38.64-101.55,72.65-169.58,92.85-18.73,5.56-37.72,7.75-58.51,11.62-40.49,7.53-98.6,8.43-139.38-1-26.89-6.23-52.06-13.06-74.63-22.93-26.18-11.43-48.77-23.8-69.75-39.83-5.77-4.41-18-11.09-20-18.58l27.62,15.37c14.39,8.63,30.91,15.65,46.86,22.16,65.28,26.63,167.56,37.52,246.56,18.17,17.94-4.4,35.76-8.27,48.7-17.85,4.86-3.6,9-12.91,5.88-21.6l-11.08-21.31-13.31-32.16-18.28-52c-22.4-56.73-48.56-107.29-95-140.4-23.31-16.6-53.49-26.16-85.82-33.88-13.11-3.13-32.18-4.45-41.46,2.38-11.18,8.23-17.17,46.84-23.73,61.44-13.47,30-39.48,52.48-69.92,65.18-34.18,14.27-82.94,13.79-123,4.34-64.67-15.26-120.75-35.41-176.44-58.38l-82.53-32.44,1-.93,28.68,4.55,58.71,14.28c60.85,18.91,118.78,38.67,185.93,51.9,87.33,17.2,150.45-18,164.8-87.25,9.79-47.23-18.47-87.91-34.09-115.27-25.11-44-41.85-94.72-54.91-149.86-12.28-51.85-4.09-115.33,27.86-140,31.13-24.07,79.55-27,127.78-15.13,28.23,6.93,56.24,12.6,83.13,21.14,28.72,9.12,57.65,18.41,88.73,25.43,34.59,7.82,79.31,4.62,104.17-8.78,61.46-33.11,76.46-122.8,104.68-189.6,6.9-16.34,30.83-52.14,21.52-75.12-7.92-19.51-36.87-11-60.59-15.24-21.59-3.85-35.81-8.34-49.24-19.36-27.18-22.31-36.81-78-47.25-117.29-5.47-20.58-7.66-41.09-17.76-56.7-14.72-22.74-37.9-34.6-68.31-42.17l-44.19-6.59.48-.94a233,233,0,0,1,29.74-6.75c17.64-2.71,37,1.86,49.85,6.19,81.78,27.67,59.46,126.23,102.06,188.51,16.22,23.71,41,32.46,81.59,32.89l28.26-.64c39.07-6.9,52.19-43.63,68.13-74.15,21.89-41.91,42.88-86.65,67.28-126.43,10.92-17.81,22.18-36.93,38.2-49.51,13.27-10.42,28.3-19.49,46.41-24.93,50.2-15.09,108.82,3.73,150.54,14.79C1646.53,673.39,1676.1,679,1707.49,679.54Zm-.59,55.09-.28,26.37c-105.13-2.5-168.67,18-229,60.19-14.69,10.26-29.62,22.09-40.88,35.83-17.66,21.55-32.83,44-48.29,68.23-35.21,55.22-61.93,116.74-89,180.83C1276,1161.22,1238.8,1253.47,1256,1335c4.94,23.44,12.32,45.12,22.87,63.35,31.3,54.06,82.26,88.61,147.17,109.87,43.87,14.38,121.13,22.25,141.12,58v.47l-1.89,0c-8.1-10-25.19-14.42-38.88-18.78-36-11.45-79.1-14.12-116.52-24.79-70.8-20.18-120.69-57.71-153.71-114.66-51.88-89.46-13.28-230.38,20.28-312,23.22-56.49,47.51-111.46,77.54-161.63l24.5-45.42c19.72-32.21,44.15-63.83,73.9-85.86C1519.17,754,1589.83,733.28,1706.9,734.63Zm-.84,78.64-.27,25c-54.39-9.66-112.4,3.77-147.65,23.86-112.72,64.25-140.22,154.36-173.64,297.65-7,29.79-11.59,60.58-17.93,92.1-2.87,14.25-7.46,34.42-4.79,51.75,4.74,30.8,10.48,55.21,23.19,77.48,7.69,13.48,14.46,27.86,26.45,37l-.48.94h-.48c-13.56-5-25.08-17.39-33.13-28.14-48.28-64.45-28.44-171.32-7.2-252,9.85-37.43,16.73-76.32,30.37-110.34,44-109.72,105-192.87,233.52-216.48C1657.3,807.75,1683.33,812.51,1706.06,813.27Zm-2.68,251.91-.24,22.13c-34.82-.61-76.74-6.16-107.38,1.21-76.45,18.36-136.73,91.71-107.06,192.4a247.67,247.67,0,0,0,29.45,63.89l20.89,29c-10.32-3.24-26.64-22.57-33.11-31-25.46-33-36.87-57.41-45-108.32-1.55-9.69-2-25.93-.09-36.26,3.76-20.81,5.36-37.19,14.21-52.12,23.46-39.52,59.77-69.44,111-80.28C1620.59,1058.52,1665,1064.7,1703.38,1065.18Zm-3.55,332.89-.26,24.49c-48.41-5.27-92.88-23.55-108.6-61.44-5.15-12.4-5.31-25-7.57-41a113.87,113.87,0,0,1,.84-34.36c2.32-12.29,5-23.89,9.78-33.81,17.65-36.84,63.36-65.76,108.16-74.66l-.25,23.54c-8.46.94-16.62,5.75-23.64,8.7-26.45,11.09-54.83,25.08-66.47,51.09l-8.3,27.22C1588.09,1359.22,1637.19,1397.06,1699.83,1398.07Zm-12.27,1151.25-58.86-.62c-3.51-7.16-17-15-22.36-22.37-14.08-19.53-25.26-43.46-31.75-70-3.79-15.52-5.12-38.64-1.76-56.06,3.4-17.59,6-31.52,12.26-45.54,16.31-36.65,48.46-57.69,68.77-90.16,13.53-21.62,23.08-52.31,23.06-86.87-.05-91.55-75.09-114.23-101.17-183.32-13.71-36.31-7.57-89.27,2.28-126.18,19-71.36,51.37-119.4,88.47-170.94l30.17-47.24h.47l-.38,36.26c-3,5.22-8.78,10.83-12.42,15.88l-43.53,64.05c-23.65,37-41,79.78-53.17,128.46l-4.08,29.15c-1.88,10.32-.48,24.5,1.06,33,6.16,33.82,15.07,47.23,32.23,69.1l29.35,29.51c19.74,25.07,35.35,49.12,45.73,84.31l-.56,51.79-.31,29.66c-6.66,24.16-14.69,46.41-27.53,64.23-29.09,40.36-58,55.42-70.93,115.56-11.86,55.12,14.63,120.61,53.71,130.54,18,4.58,30.32-3.15,41.52-7.56Zm-175.16-1.86-18.83-.2-5.74-36.33-3.82-39.59.38-35.32c2.33-13.72,1.08-26,3.71-38.57,5.68-27.09,13.09-50.19,22.9-71.81,6.67-14.7,22.53-41.49,38.62-45.26-2.6,7.89-12.31,18.3-16.3,27.13-10.94,24.22-19.27,50.33-25.8,79.31C1495.14,2441.75,1509.15,2496.84,1512.4,2547.46Zm-367-69.84c-2.48,7.51-13.25,11.85-20.41,14.85-20.67,8.65-59.85,17.77-91.48,12.21-18.68-3.28-36.23-3.82-53.6-8.11-58.72-14.47-114.72-29.1-160-56.8-54.21-33.18-74.86-83.83-100.65-144.23-13.77-32.26-32.82-83.31-64.42-96.75-38.06-16.19-100.91,14.36-125.1,28.8-55.18,32.94-91.8,76.6-117.34,140-8.53,21.18-12.8,45.25-18.63,69-7.39,30.17-6.56,65-10,98.79l-25.9-.28,2-50.84c6.31-36.58,8-69.93,19.9-99.62,26.24-65.5,62.22-120.06,96.54-177.44,20.39-34.1,33.84-76.36,46.92-116.76,9.35-28.86,14.09-57.69,20.28-90.67,1.86-9.94,3.34-27.47,2.26-35.3-2.09-15-.44-29.67-2.85-42.41-.81-4.31-3-13.24-1.25-14.61,4.72,10.33,11.43,19,14.72,32.18,11.29,45.46.91,102.39-9.06,143.06-4.44,18.12-23,73-16,89.3,5,11.72,21.67,13.61,36.16,9.34,42.86-12.64,79-24.62,117.69,3.6,18.58,13.55,26.83,34.52,38.5,55l57.63,116c26.15,44.77,71.39,71.84,120.49,94,18.14,8.21,36.56,18.16,58.63,22.29,13.84,2.59,21.72-8.36,19.54-22.4-9-58.08-5.68-127.94,29.44-155.08,4.55-3.52,31.26-21.42,39.72-15.59l-13.28,9.28c-9.56,6.83-19.37,16-25.71,26.09-22.67,36.07-28.63,137.57,6.27,163C1048.61,2501.18,1108.92,2483.44,1145.36,2477.62Zm0-1459.83-.49,1.41c-27.68,5.49-54.11-3.2-72.85-13C1025,981.49,996.8,934.8,981.09,879.47c-7.94-28-17.27-97.44,8.73-112.45l.94.48c-11.84,28.77-2.62,72.55,4.61,97.53,18.48,63.83,43.84,114.86,100.69,140.46C1110.89,1012.16,1127.42,1012.57,1145.38,1017.79Zm-78.52,518.58c.12,18.51-3.64,30.2-7.52,42.77l-1.87-1c5-17.54-4.64-46.88-9.27-58.49-19.55-49.09-45.1-67.88-104.18-78.34L909.19,1440c-35.55-.37-64.45-1.32-84.59-16-20.56-14.93-41.17-49.47-32-87.93,2.84-11.94,6.23-20.39,14.88-26.21l1.4,1c-5.84,12.28-6.8,33.19-2.87,48,7.7,29,22.54,46.56,51.22,54.7,19.89,5.65,44.57.14,67.77,4,26.7,4.47,49.57,4.89,70,13.93,29.55,13.07,52.55,39.3,64.24,69.91C1063.21,1511.88,1062.78,1525.85,1066.86,1536.37ZM0,2531.34l.28-25.9c31.86-14.42,61.68-34.13,95.16-48,56.91-23.52,121-35.94,157.2-80.26,32.3-39.59,43-80.54,55.66-141.15,3.92-18.78,4.11-38.4,7.69-59.26l1.31-34.36c-3.37-21.87-5.16-38.64-20.68-48.25-11.3-7-37.4-8-55-5.3l-19.3-.2c-23-.25-43.81-1.27-61.62-6.78C96.47,2062,48.5,1998.51,29.91,1934.07c-6.84-23.71-9.51-60.09-3.3-87.63,11.5-51.07,35.38-89.73,59.75-127.92,17.28-27.07,35.84-53.87,46.61-87.56,18.44-57.62,19.92-125.87,35.89-185.63,13.1-49,34.66-91.92,62.56-126,25.26-30.86,65.5-51.77,105.73-67.15,24.57-9.4,50.73-15.14,72.34-27.49a209.28,209.28,0,0,0,61.79-53.49c27.26-35.25,44.66-78.84,68.6-117.94,11-18,23.81-33.75,36.79-49.53,35.92-43.67,127.14-67,193.47-81.76,57.11-12.67,134.61-14.42,174.07,16,35.07,27,64.9,80.58,79.16,128l17.95,83.08c5.83,19.49,15.47,36.14,21.56,53.91l-1.88,0-12.13-11.43a128.8,128.8,0,0,1-16.66-27.49c-11.78-27.64-18.1-59-27.3-89.3-14.86-48.9-48.52-107.65-92.83-127.19-34.53-15.23-95.88-13.22-136-5.22-75,15-148.43,31.25-188.76,81.34-37.21,46.2-53.93,114-90.25,161-21.33,27.63-52,49.4-86.39,63.59-20.95,8.65-44.35,12.76-66.15,21-36.37,13.67-73.46,30.18-96.21,57.84-29.78,36.2-52.73,76.46-66.83,129.26-15.66,58.57-13.61,130.81-31.67,187.55C132,1699.73,97.34,1739,74.77,1790c-8.2,18.52-13,39.14-17.61,61.5C39.3,1938,92.63,2014.83,140.81,2045c12.35,7.73,27.71,12.33,43.62,16.48,29.7,7.76,117.77,12.63,133.81-7.52,14.52-18.23,9.68-54.21,14.54-82.26l2.81-42.82,1.8-36.71c.48-44.6-6.86-75.09-31-95l-27.53-23.36c-28.94-21.13-79.55-52.51-85.18-94.15l18.18,17.62,14.45,14.28c28.22,23.12,56.16,38.91,90.75,56.53,10.16,5.18,25.77,14.55,42.26,11.75,14.45-2.44,25.18-8.53,35.95-14.68,13-7.45,27.91-12.94,43.51-17.43,62.57-18,143.47,6.32,173.82,38.58,33.71,35.83,52.53,108.24,26.93,168.4-4.62,10.87-17,34.76-28.18,37.38l7.69-14.52A226.86,226.86,0,0,0,632.61,1941c11.52-43.88.35-93.66-17.07-122.14-9.32-15.25-24.59-29.54-41.51-37.18-55.8-25.19-154.44-26.87-190,16.34-6.68,8.13-13.23,16.23-16.77,27.61-3.05,9.81-1.26,21.2-3.17,32.46l-5.9,111.07-6,79.52-6.95,77.63-6.35,65.39c-9.71,53.88-12.19,109.59-30.37,154.6-18,44.52-47.28,75-86.75,97.5-30.36,17.3-70.67,21.64-105.38,34.66-38,14.27-71.64,29.88-100.4,53.09ZM988,188.25c-3,5.68-15.21,5.55-22.68,6.82-25.67,4.36-50.59-6.17-67.18-14.84C844.9,152.39,811,104.62,781.28,53.72L754,7.75,778,8c4.82,16.06,20,35.37,28.67,49.28C832.75,99,883.81,160.15,931.1,179.63c10.62,4.38,22.84,6.07,35.7,8.39ZM750.55,2538.87l-24.49.21c-11.32-20.77-41.14-45.11-65.83-53-61.39-19.54-137.86,24.12-168.18,50.48l-17.42-.65.95-.94c5.43-11.37,19.2-21.15,29-28.41,36.46-26.94,107.78-60.17,169.44-35.4,24,9.65,45.3,24.45,59.81,43.49ZM720.72,1007.61c-1.71,5.29-9.14,8.95-12.84,12.58a181.32,181.32,0,0,0-22.89,26.6c-19.15,28-32.86,63.7-44.38,98.89C616,1220.89,597.47,1299.93,576.9,1379c-12.3,47.33-13.27,98-38.59,131-23.73,30.86-78.25,48.55-121.27,22.72-35.48-21.3-69.62-53.69-82.32-96.94-11.24-38.3,5.17-75.8,31.54-86.79,26.55-11.06,52.14,4,69.54,14.4,25,15,69.39,21.65,96.95,4.8,9.35-5.72,16.68-14.82,22.4-24.25,11-18.21,16.65-41.61,23.74-63.32,22.92-70.13,36.83-155.05,72.91-212.54C667.52,1043,689,1015.82,720.72,1007.61ZM549.66,1416.42c-3.41-8.55-3.44-15.33-10.62-19.89-15.41-9.78-46.38,2.7-67.31-2.13-30.54-7-67.94-44.31-100.06-23.2a32.67,32.67,0,0,0-14.83,22c-3.3,16.15,2.72,35.9,7,47.16,15.06,39.33,79.5,106.31,139.49,79.19C532.58,1506.32,549.43,1459.28,549.66,1416.42ZM518.55,5.24,502.81,23.91C494.33,36.44,488.09,51,481.18,65.12c-2.46,5-5.61,19.18-12,18.24.86-24,12.34-47.77,22.34-64.28l9.1-14ZM19.06,743l.28-26.37c27.29.36,56.48,1.92,81.4,6.52,31.16,5.75,60.84,5.87,89.33,13.19,12.8,3.29,54.47,19.08,67.66,13.91,13.4-5.25,13.08-23.21,16-39.39,6.93-38.86-19.92-46.06-55.6-40.62-61.87,9.44-130.16,7-198.32,6.36l.16-15.06c20.75.77,45.16,3.27,65.45.22l69.28-5.38,70.71-6.78C319.77,635,420,652,462.11,705.83c19.08,24.33,44.61,67.66,31.73,116.18-12.44,46.82-68.61,69-121.52,46.27-46.23-19.91-70.51-60.71-112.59-84.08C236.67,771.39,208.67,767,179,760.26,131,749.32,75.38,743.72,19.06,743Zm461.48,45.41-1.28-12.26a139.22,139.22,0,0,0-8.2-26.45c-18.23-42.28-53-61.8-100.91-75.48-21.47-6.14-61-15.73-73.51,4.39-7.29,11.76-3.33,30.74-6.16,47.5s-1.21,40.22,3.68,52.31c11.26,27.81,62.87,63,93.88,73C442.39,869.14,480.46,842.65,480.54,788.43ZM438,227.12c.22,132.27-99.28,152.06-198.78,182-61,18.36-136.77,38-216.9,26.41l.18-17c66.37,11.19,126.6-3.18,178.67-18.81,36.19-10.86,71.12-21.13,104-34.68,38.65-15.94,74.91-32.86,95.84-66.79,21.69-35.19,18.08-89,3.25-128.06C395.77,147.92,382,118.58,360.63,109c-15.33-6.85-34.63-2.8-55-6.24l-39.54-1.36c-20.55-3.48-43.26-1.82-62.57-5.38-32.49-6-61.64-8.84-86.91-20.23-6.37-2.87-18-6.61-20.1-13.4,10.24,2.53,20.88,8.36,32.37,11.18,14.76,3.61,30.43,3.4,46.56,6.14l23.06.72,48,.51c18.54-2.73,37.7.8,54.65-1.77,28.12-4.26,58-2.87,72.27-20.89,10-12.65,9.86-33.37,11.88-54.5l25.9.27v.48c-2.93,10.12-.25,43.44,1.31,53.69l3.82,39.6c4.87,25.8,9.9,50.86,15.68,75.51L437.24,212Zm-98,840-1,1.87c-10.28,1.37-21.9,3-33.48,4.82-21.35,3.32-42.84.27-62.68,4-26.62,5.07-50.79,11.45-72.74,20.88-23.49,10.1-41.39,27.42-61.19,41.26-24.37,17-61.19,35.8-94.63,42.32l.25-23.55,26.46-8.19c21.21-7.33,40.2-14.49,57.72-25.29,16.64-10.25,31.3-23.65,48.39-33.86,35.93-21.44,81.34-27.85,139.68-27.23ZM304.57,199.8c-4.21,6-16.74,8.73-23.21,12.47-13.93,8-26.21,17.27-38.43,26.9-10.59,8.35-19,21.33-27.18,32.2-24.32,32.43-47.51,64.48-88.45,80.06-34.37,13.08-71.69,6.73-95-11.85l-8.88-7.15.45-41.91.94.48c2.47,9.76,8.9,17.63,14.33,24.64,21.4,27.58,58.59,30,94.5,14.66,49.43-21.09,72.65-80.4,115.61-110.37C259.82,212.56,285.51,195.25,304.57,199.8ZM27,0,42.52.17c-4.39,7.34-11.28,12.43-14.83,21h-.94ZM8.27,2153.28c0,15.58-1.26,30.22-4.23,42.81H3.57l.73-68.28C8.78,2134.05,5.25,2145.37,8.27,2153.28Z"/></g></g></svg>