<svg xmlns="http://www.w3.org/2000/svg" viewBox="0 0 3075.01 4565.98"><defs><style>.cls-1{fill:#231f20;fill-rule:evenodd;}</style></defs><title>pattern2</title><g id="Layer_2" data-name="Layer 2"><g id="Layer_1-2" data-name="Layer 1"><path class="cls-1" d="M13.81,4561c.34-42.53-11.66-212.83-5.06-247.91L13.19,4186l.43-84.52.64-98.46-5.82-60.81C4.7,3923.28-.34,3910.51,0,3886.3l1.62-51.67L5,3837.14l11.55,15.75c9.55,14.49,16.7,32.19,22,50.37,13.21,45.55,5.87,100.18,13.7,152.83l-.52,34.46,0,54.15-1.87,123.89c-.49,32.67-2.24,65.85,5.37,91.16,7.36,24.47,46.7,185.24,60.45,202.74ZM3.55,3651.66c61.33,3.53,128.44,42.79,157.08,78.56,24,30,47.94,60,64.2,97.75,44.76,103.81,53.44,231.49,78,356.43,11.75,77,45.18,304.56,56.93,381.58l-32.83-.47c-16.54-94.05-54.76-338.62-71.31-432.66-37-177.17-45.79-344.9-184.68-426.89-20.06-11.84-43.26-16.9-67.82-24.76Zm.93-62.35.63-41.84c173.43,26.22,262.09,60,337.39,181.25,27,43.5,48.1,94,64.29,147,17.29,56.6,26.84,117.24,48.82,168.92,42.14,99.08,123.17,173.13,232.58,208.47l48.65,12.18c133.88,29.23,99.31-102.77,125.72-186.94,21.59-68.8,51.33-130.48,102.72-169.21,73.8-55.62,162.92-85.57,271.86-107.72L1346.77,3789l197.93-6.19c32.19-4.64,61.38.45,86-9.44,46.27-18.59,61.58-82.73,81.89-127.67,36.48-80.68,78.83-161.67,133-225.4,27.52-32.36,70.56-58.7,118.08-70.53,44.46-11.06,102.34,9.85,91.79-57.77-23.49-150.49-115.17-167.33-251.11-208.73-66-20.1-137.42-35.27-194.52,3.79C1493.42,3166.71,1488.71,3351.63,1345,3405c-66.09,24.52-165.13,9.65-220.34-14.63-128.28-56.42-163.38-147.78-194.23-295.73-9.1-43.61-18.24-101.48-10.33-152.78l3.37-.77c4.78,48.83,17.54,97.54,30.72,140.76,36.79,120.71,73.27,219.53,185.38,268.52,36.86,16.11,110.34,40.5,166.27,27.81,98-22.22,120-109.31,166.09-183.9,34.21-55.33,73.4-113.09,126.83-149.17,56.08-37.87,142-43.64,211.51-69.2,92.77-34.12,173.31-86,247.91-139.24,46.8-33.41,91.16-75.51,125.58-121.29L2258.63,2604c33.32-44.46,74.73-82.78,121.26-114,46-30.84,101.84-50.62,160.15-69.11,36.31-11.51,72.66-18.58,103.24-35.45,54.64-30.15,97.72-72.67,130.68-124.5,51.24-80.61,80-180.07,110.32-282.35,25.38-85.66,39.7-174.34,72-251.72,22.73-54.49,44.59-101.65,74.6-146.64L3051.5,1551h.84l-1,64c-15.1,27.69-33.77,55.9-47.6,86.3-20.78,45.67-32.27,94.19-46.83,147-9.42,34.2-18.47,88.17-.08,117.34,16.16,25.65,51.75,34.76,88.62,40.66l-.62,41.84c-52.5-1.34-89.68-6-124,17.1-33.73,22.74-42.26,77.89-59,117.32-28.51,67.08-66,138.15-120.57,179.63-32.81,25-66.21,50.51-107.08,67.4-88,36.4-186,59.73-259.27,110.36-44.37,30.65-82.32,70.32-108.71,119.08-4.83,8.93-25.12,40.8-17.68,56.36,7.16,15,38.3,16.56,60.42,13.18,38.65-5.92,80.81-1.51,122.17-7.29l71.57-.61,53,3.21c41.33,7.15,80.16,10.13,115.86,21.35,23.39,7.36,62.11,28.83,94,16.94,33.53-12.49,35.49-62.29,55.21-88.66,41.85-56,117.05-84.55,215.92-83.08l-.58,38.56c-79.53-2.44-157.83,24.6-183,77.81-13.59,28.72-19.5,75-6.68,108.22,30,77.54,91.84,193,183.75,209.41l-.64,42.66c-98.58-7.31-142.89-91.68-187.14-152-28.35-38.66-62.21-75.38-104.55-100.78-36.19-21.71-79.09-33.88-126.44-45.3l-88.23-11.11c-36.79-6.53-97.38-3.67-130.51,1.42-56.35,8.67-105.12,11.48-151.12,28.21-85.73,31.16-151.82,80.52-225,124l-109.55,63.27c-17,10.07-39.79,21.84-45.27,42.84-8.16,31.34,29.46,39.19,48.13,46.64,59.27,23.65,111.18,49.72,142.46,99.69,39.69,63.4,57.3,146.08,100.45,205.76,65,90,164.31,156.43,285,193.63,36.83,11.35,73.93,13.19,116.71,20.54,39.28,6.74,91.13,5.47,129.65-.61,32.56-5.14,65-7.7,94.53-15.89,60.65-16.78,107-45.19,154.34-74.93,24.08-15.13,60.4-42,90.8-47.93l-.55,36.91c-52,22.92-93,95.55-1.64,109.12l-.63,41.84c-58.35-3.17-118.85-9.9-182.52-10.81l-62.3-.07c-100.8,14.41-231.45,16.51-324-7.91-76.75-20.26-144.22-46.81-199-87.37-50.51-37.36-88.73-86.76-150.67-113.75-67.54-29.43-154-25-205.61,13.48-50,37.31-78.69,104.27-109.34,160.91-15.37,28.42-29.39,57-43.4,87.18-8.61,18.54-19.69,36.24-24.46,58.74-6.13,28.95,15.93,42.82,46.57,38.41,64.25-9.25,155.93-13,213.75,5.51,101.89,32.68,161.87,119.14,192,220.2,35.46,119-13.74,254.72-87.1,305.66-96.48,67-184.27-9.67-235.56-66.55l-69.44-84.69c-63.69-80.55-142.09-139.54-254.14-175.14-35.45-11.26-105.52-29.44-157.09-21.93l-75.9,8.76c-96,21.93-172.17,60.59-219.18,131.45-20.75,31.27-34.43,70.22-47.1,109.28-3.28,10.12-8.37,44.8-15.88,48.19,7.43-181.36,108.62-278.88,257.38-320.46,46-12.87,127.18-25.76,188-14.54,32.63,6,63.62,9.5,93.17,18.56,56.43,17.31,107.85,37.59,150.51,67.8,55.91,39.59,104.51,92.4,145.12,146.49,33.41,44.5,66.33,98.61,121.93,121.55,40.33,16.64,79.71-7.3,98.09-29,40.74-48,80.69-127.52,58-219.91-20.58-83.88-64.39-172.73-139.19-205.5-50.31-22-163.88-20.12-227.14-10.62l-177.85,14.69-67.39,2.32-37-.53-101.1,5.12c-42.82,6.35-83.67,3.5-123.08,11.37-145.94,29.15-275.57,70.9-329.53,192.23-29.81,67-35.12,152.18-36.56,248.12.68,47.87,11.15,235.22,11.83,283.09l-38.71-.55c-1.41-97-112.65-246.42-187.06-275.75-52.59-20.73-100.37-44.86-142-75.88-76.15-56.79-114-138.53-144.57-239.21-14.56-48-23.24-97.15-41.66-140.92-51.82-123.13-112.34-193-258.38-228.53C59.78,3596.18,32.34,3590.26,4.48,3589.31Zm2.29-151.78.55-36.91c32.62-7.79,64.15-14.86,103-20.69,48-7.2,127.84,4,168.18,12.25l166.29,27,58,5.76c26.11,4.59,59.86,1.29,82.53-2.11l75-4.67c55.17-8.36,136.49-13.18,191.08,1.09,58.88,15.39,108.33,41.62,162.37,63,103.88,41.18,274.15,72.36,412.66,46.1,75.45-14.3,138.72-31.15,195.42-62.85l60.31-36.07,37.45-27.36h.85c-9.19,26.36-75.46,78-100.74,92.93-103.28,61-310.67,95.45-472.34,59.72-86.55-19.13-156.81-47.12-229.52-76.31-43.81-17.59-190.87-50.16-242.14-20.69-40.52,23.28.9,75.19,14.51,98.68l14.59,37.13c11.12,29.4,15.21,64.73,21.24,99.6l2.45,60.75-.76,50.87-2.51,54.94-6.37,87.72L714.8,3995c-8.84,45.7-14.78,84-37.07,114.36l-2.53,0-.83-.83c16.39-50.14,10.73-107.74,21-163.82l1.79-63.16.12-64-1.64-59.1c-6.26-41.13-7.59-81.09-18.45-116.79-47-154.71-168.84-169.92-337-206.68-76-16.6-179.1-33.24-264.93-16.91C50.05,3422.79,28.51,3431.3,6.77,3437.53Zm2.7-179.67.38-25.43c101.59,0,180.48,34.71,266,54.68,54,12.61,125.32,5.45,162.7-14.91,99.1-54,143.71-164.87,192.62-268.86,70.88-150.74,161.06-283.85,230.49-436.55,48.42-106.47,78.66-235.25,176.14-292.89,46.71-27.62,131.56-40.84,205.79-25,102.17,21.85,185.85,58.18,286.65,84.52,71.69,18.73,165.89,32.62,221.53-8.33,42.36-31.17,62.53-103.93,49-179.83-17.26-96.8-46.1-176.56-80.35-255.53-25.51-58.82-65.44-107.1-119.13-139.56-46.82-28.3-105.32-42.48-158.12-65.44a491.51,491.51,0,0,1-103.47-61.38c-63.87-49.26-108.15-123.85-140.92-202.24-22-52.68-33.78-112.86-61.57-160.07-29.7-50.45-72.48-76.38-132.53-32.26-35.19,25.85-.94,75.32,12,99.46,33.89,63.38,90.2,186.35,67.22,289-12.34,55.08-36.64,92.62-85,111.21-26.23,10.07-98.93,7.34-104.91,34.6-3.65,16.65,13.12,26.57,19.68,34.75l82,88.15c74.31,93.17,159.9,181,288.78,222.41,43.66,14,93,18.78,141.85,28.28l70.6,7.57v.83l0,1.64-.85.8c-79.33,1-167,7.05-235.51-14-122.62-37.74-210.45-119.7-279.73-208.32-33.94-43.42-71.29-90-114.3-124.72-23.32-18.85-46.47-37-73.29-52.75-59.23-34.79-142.71-45-220.49-61.41l-96.63-12c-92.33-17.47-174-27.08-215-91.7-49.73-78.44,1-190.06,27.52-262.19,45.17-122.88,80.48-255.45,145.15-359.81,21.75-35.1,44.08-69.53,68.88-101.59,23.51-30.39,53.15-58,62.15-102.51,7.81-38.57-25.39-106.93-35-138.36-29.65-97.42-30.38-248.49,25-322.13,45.77-60.82,132.19-62.78,211-91.35,83-30.11,146.49-80.54,147.69-192.38l38.71.56c-.9,151-95.59,192.43-207.21,231.73-52,18.31-104.53,25.08-143.93,54.56-31,23.16-45.16,62.59-54.66,107.54-9.07,42.91-5.41,100.38,2.11,139.53C567.92,646.69,583.4,744,685.9,765.55c37.08,7.78,76.9-4.79,104.58-12.46,62.39-17.28,113.88-34.32,184.2-45,96.47-14.61,191.63,45.77,277.63,12.17,29.82-11.65,52.41-33.88,71.57-56.42,29.47-34.68,67.35-66.39,117.38-80.38,14.71-4.12,38.77-8.68,59.85-4.89,110.9,19.93,164.25,104.3,221.29,175.48,38.4,47.92,126.76,84.84,197.14,102.11l.82,1.65-1.72,2.44c-33.64,4.61-67.25-3-92.44-11.17-47.07-15.18-77.88-34.64-111-61.49l-29-33.23c-21.53-27.23-45.55-55.61-72.92-77.36-29-23-80.77-65.07-140.59-56.17-103.92,15.47-121.94,113.76-225.19,139.57-95.25,23.81-189.6-24.74-290.32-8.25C893,762.7,835.62,777.7,777.24,793.93c-61.67,17.14-125.46,27.61-177.6,54.08-22.35,11.35-41.22,26.45-60.39,41-85.3,64.71-143.85,235.23-182.9,350.24L292,1430.34c-9.58,26.93-22.79,68.3-9.92,100,39.91,98.22,135.59,89.5,252.56,111.93l123.45,19.81c77.14,16.89,152.75,29.16,234.23,43.56,87,15.39,135.49-34.76,152.94-93.82,27.56-93.29-36.58-229-73.23-280.87-14.17-20.08-38.56-54.09-77.59-46.24-33.53,6.74-54.43,43.86-70.91,68.73-31.95,48.22-55.77,100.9-113.82,123.11-20.86,8-54.26,9.88-78.34,3-89.48-25.63-119.84-133.1-75.7-228.38C605.47,1143.68,708.24,1105,827,1066.26c120.26-39.26,247.8-66.27,381.92-93,39.39-7.86,81.14-6.91,123.11-13l69.88-.64c104.22,1.47,192.49,19.65,267.81,49.77,24.08,9.64,74.6,25.35,86,44.73l0,.82-40.18-15.35-70.41-19.88c-52.25-14.95-107.24-19.83-164.55-30.25l-69-3.45c-64-.92-121.25,2.54-173.62,13.12-150.92,30.47-291.89,65-426,113.72C712.55,1149,636.44,1170.24,588.41,1259c-14.68,27.11-30.64,74.89-18.57,115.44,14.71,49.48,74.95,103.73,138.75,66,26-15.37,42.77-42.08,59.93-66.44,28.4-40.31,56.8-84.79,96-114.33,88.9-67,182-125.89,303.8-160.6,33.53-9.56,67.49-13.24,104.68-19.84,72.42-12.84,176.32-14,249.15,2.74,48,11,93,23.13,133.25,40.47,46.7,20.1,87,41.82,124.38,69.89,10.3,7.73,32.09,19.46,35.72,32.51l-49.27-27c-25.65-15.14-55.14-27.5-83.6-38.94-116.51-46.86-299.26-66.55-440.63-33.38-32.09,7.53-64,14.16-87.17,30.76-8.73,6.25-16.25,22.43-10.67,37.6l19.64,37.2,23.57,56.14,32.31,90.73c39.65,99,86,187.29,168.9,245.3,41.55,29.1,95.42,46,153.16,59.63,23.42,5.55,57.49,8,74.14-3.86,20-14.25,31-81.48,42.86-106.89C1683,1520,1729.7,1481,1784.2,1459c61.2-24.62,148.36-23.44,219.83-6.7,115.5,27,215.61,62.54,315,103l147.31,57.08-1.71,1.62-51.23-8.12-104.85-25.3c-108.64-33.37-212.06-68.2-332-91.72-156-30.59-269.09,30.36-295.23,150.87-17.84,82.23,32.39,153.32,60.11,201.09,44.57,76.8,74.15,165.34,97.09,261.51,21.58,90.44,6.49,201-50.81,243.81-55.81,41.72-142.39,46.42-228.52,25.46-50.41-12.27-100.45-22.35-148.45-37.41-51.28-16.09-102.93-32.48-158.43-44.93-61.79-13.86-141.74-8.6-186.27,14.57-110.12,57.28-137.57,213.45-188.48,329.65-12.46,28.42-55.5,90.64-39,130.73,14,34.07,65.81,19.45,108.19,27,38.57,6.85,64,14.78,87.89,34.08,48.42,39.06,65.25,136.12,83.63,204.7,9.62,35.89,13.4,71.64,31.34,98.92,26.15,39.73,67.51,60.55,121.8,74l79,11.79-.87,1.63a421.23,421.23,0,0,1-53.21,11.55c-31.55,4.6-66.22-3.48-89.07-11.12-146-48.79-105.39-220.37-181.1-329.18-28.82-41.43-73.1-56.85-145.61-57.88l-50.52.92c-69.89,11.75-93.61,75.65-122.33,128.73-39.42,72.87-77.26,150.68-121.16,219.82-19.66,31-39.92,64.2-68.64,86-23.79,18.06-50.74,33.76-83.15,43.12-89.85,25.94-194.5-7.26-269-26.82C118.39,3269,65.58,3259.09,9.47,3257.86Zm1.44-96,.69-46c187.9,5.09,301.64-30.25,409.85-103.28,26.35-17.78,53.12-38.29,73.34-62.14,31.73-37.43,59-76.44,86.81-118.57,63.35-96,111.55-203,160.47-314.45,42.09-95.93,109.33-256.41,79.23-398.5-8.66-40.87-21.7-78.71-40.43-110.53C725.3,1914,634.45,1853.48,518.58,1816c-78.32-25.34-216.38-39.6-251.87-102.06l0-.82,3.36,0c14.42,17.4,44.94,25.31,69.38,33,64.22,20.2,141.3,25.15,208.12,44C674,1825.79,762.91,1891.53,821.54,1991c92.1,156.25,22.1,401.53-38.48,543.51-41.92,98.27-85.72,193.88-139.76,281.1l-44.12,79c-35.49,56-79.39,110.91-132.73,149.09C346.64,3129.41,220.18,3165.05,10.91,3161.88Zm2.06-137,.65-43.49c97.17,17.21,201-5.78,264.11-40.53,202-111.18,251.78-268,312.53-517.44,12.64-51.87,21.16-105.48,32.72-160.36,5.23-24.81,13.58-59.93,8.93-90.14-8.26-53.69-18.34-96.28-40.9-135.16-13.66-23.54-25.65-48.65-47-64.68l.86-1.63h.85c24.21,8.75,44.71,30.47,59,49.26,85.85,112.63,49.61,298.71,11.07,439.18-17.87,65.16-30.45,132.87-55.08,192.05-79.43,190.87-189.14,335.34-419,375.59C100.1,3034.82,53.59,3026.35,13,3024.87ZM19.57,2586l.58-38.56c62.23,1.3,137.13,11.25,192-1.37,136.79-31.46,245.07-158.86,192.76-334.5A426.15,426.15,0,0,0,352.67,2100l-37.12-50.59c18.42,5.71,47.46,39.51,59,54.18,45.27,57.78,65.5,100.3,79.66,189.06,2.69,16.9,3.3,45.2-.11,63.18-6.87,36.25-9.84,64.78-25.78,90.72-42.21,68.7-107.33,120.58-199.09,139.12C167.52,2598.12,88.16,2587,19.57,2586Zm8.72-580,.64-42.66c86.5,9.52,165.86,41.68,193.69,107.8,9.11,21.65,9.31,43.58,13.23,71.58a193,193,0,0,1-1.74,59.88c-4.23,21.4-9.16,41.59-17.72,58.83-31.82,64.08-113.74,114.16-193.89,129.35l.62-41c15.13-1.58,29.75-9.91,42.32-15,47.37-19.15,98.19-43.33,119.19-88.56l15-47.38C227.75,2074.4,140.26,2008.1,28.29,2005.91ZM58.44,0,163.65,1.5C169.89,14,194,27.73,203.47,40.64c25,34.11,44.84,75.9,56.25,122.25,6.67,27.08,8.87,67.37,2.75,97.69-6.19,30.63-11,54.88-22.24,79.28-29.41,63.74-87,100.17-123.58,156.61C92.31,534.05,75,587.47,74.8,647.68,74.25,807.2,208.22,847.24,254.36,967.81c24.25,63.37,12.88,155.6-5,219.85C214.83,1311.87,156.69,1395.35,90,1484.9L35.73,1567h-.84l1-63.17c5.33-9.09,15.76-18.82,22.3-27.58l78.28-111.31c42.54-64.26,74-138.72,96-223.47l7.49-50.77c3.43-18,1-42.67-1.66-57.46-10.77-59-26.59-82.41-57.11-120.62L128.84,861C93.74,817.15,66,775.15,47.71,713.76l1.36-90.25.78-51.68c12.06-42.05,26.58-80.75,49.66-111.71C151.8,390,203.57,363.94,227.13,259.25c21.59-96-25.29-210.25-95.07-227.84C99.87,23.3,77.84,36.69,57.78,44.3ZM371.55,4.47,405.21,5l10,63.33,6.54,69-.93,61.54c-4.26,23.89-2.11,45.33-6.9,67.19-10.34,47.15-23.76,87.36-41.45,125-12,25.58-40.58,72.14-69.37,78.61,4.7-13.74,22.14-31.81,29.33-47.18,19.73-42.11,34.81-87.55,46.7-138C401.65,188.78,377,92.69,371.55,4.47Zm655.62,124.25c4.49-13.07,23.76-20.56,36.59-25.74,37-14.93,107.11-30.54,163.63-20.64,33.36,5.85,64.73,6.92,95.75,14.5C1428,122.47,1528,148.35,1608.71,196.93c96.68,58.2,133.23,146.59,178.89,252,24.4,56.32,58.08,145.4,114.48,169,67.92,28.47,180.48-24.33,223.83-49.32,98.87-57,164.65-132.83,210.76-243.17,15.39-36.85,23.21-78.76,33.79-120.14,13.44-52.51,12.19-113.22,18.58-172.06l46.3.66-3.86,88.57c-11.54,63.7-14.81,121.8-36.28,173.45-47.39,113.94-112.1,208.77-173.85,308.52-36.7,59.27-61,132.82-84.72,203.11-16.92,50.23-25.6,100.42-36.89,157.85-3.4,17.31-6.17,47.84-4.29,61.48,3.62,26.21.57,51.71,4.78,73.93,1.43,7.51,5.32,23.08,2.15,25.46-8.38-18-20.32-33.09-26.1-56.17-19.86-79.29-.89-178.42,17.22-249.21,8.06-31.54,41.64-127.11,29.27-155.5-8.9-20.45-38.63-23.85-64.57-16.51-76.71,21.72-141.32,42.35-210.36-7.11-33.12-23.72-47.72-60.33-68.43-96.16L1677.23,343.15C1630.8,265,1550.11,217.47,1462.5,178.43c-32.35-14.42-65.21-31.9-104.64-39.24-24.72-4.61-38.88,14.41-35.1,38.88,15.66,101.28,9.25,223-53.73,270-8.15,6.1-56,37.1-71.12,26.89l23.82-16.08c17.13-11.84,34.74-27.77,46.14-45.29,40.79-62.69,52.17-239.5-10-284.07C1200.29,88.34,1092.35,118.83,1027.17,128.72ZM1016.71,2672.4l.88-2.45c49.52-9.39,96.71,6,130.14,23.2,84,43.33,134,124.88,161.67,221.4,14,48.8,30.18,169.92-16.41,195.89l-1.67-.85c21.38-50,5.19-126.4-7.55-170-32.58-111.36-77.54-200.45-179-245.45C1078.33,2682.44,1048.78,2681.61,1016.71,2672.4Zm144.06-903.05c-.07-32.25,6.73-52.6,13.75-74.48l3.34,1.69c-9,30.52,8,81.71,16.15,102,34.59,85.67,80.14,118.59,185.67,137.23l62.26,2.53c63.54.9,115.19,2.76,151.11,28.42,36.63,26.17,73.23,86.49,56.62,153.44-5.16,20.79-11.28,35.48-26.78,45.57l-2.5-1.68c10.52-21.37,12.38-57.8,5.46-83.62-13.55-50.56-40-81.28-91.16-95.67-35.52-10-79.67-.55-121.12-7.48-47.69-8-88.57-8.86-125.06-24.76-52.75-23-93.67-68.84-114.34-122.26C1167.12,1812.05,1168,1787.7,1160.77,1769.35ZM3075,43.09l-.68,45.12c-57.06,24.9-110.52,59-170.46,82.91-101.9,40.58-216.61,61.77-281.58,138.76-58,68.75-77.42,140-100.51,245.56-7.14,32.68-7.61,66.87-14.18,103.19L2505,718.5c5.87,38.12,8.95,67.36,36.62,84.22,20.15,12.29,66.81,14.27,98.35,9.61l34.51.5c41.13.58,78.31,2.5,110.1,12.24,114.6,35.08,199.9,146.11,232.67,258.52,12.06,41.36,16.57,104.77,5.28,152.71-20.93,88.91-63.89,156.11-107.73,222.48-31.08,47-64.44,93.62-84,152.25-33.36,100.27-36.5,219.19-65.47,323.2-23.77,85.32-62.62,159.93-112.74,219.13-45.37,53.59-117.46,89.75-189.48,116.28-44,16.2-90.79,26-129.52,47.38a371.2,371.2,0,0,0-110.83,92.79c-49,61.22-80.4,137.05-123.47,205-19.78,31.22-42.81,58.64-66.12,86-64.52,75.85-227.76,115.94-346.44,141.12-102.18,21.68-240.73,24.18-311-29.06-62.5-47.33-115.44-140.86-140.59-223.57l-31.5-144.88c-10.28-34-27.39-63.07-38.15-94.09l3.36.05,21.59,20c11.16,14.14,22.14,30.8,29.59,48,20.87,48.24,32,103,48.17,155.78,26.21,85.33,86,187.92,165,222.27,61.61,26.78,171.31,23.72,243.14,10,134.16-25.54,265.56-53.42,338-140.41,66.84-80.25,97.22-198.22,162.48-280,38.33-48,93.37-85.73,154.88-110.2,37.52-14.94,79.37-21.93,118.4-36.06,65.11-23.57,131.54-52.09,172.4-100.11,53.5-62.88,94.8-132.86,120.4-224.76,28.4-102,25.26-227.85,57.94-326.59,32.19-97.24,94.44-165.39,135.15-254.1,14.79-32.21,23.51-68.11,31.92-107,32.55-150.69-62.23-284.87-148.14-337.74-22-13.55-49.46-21.66-77.86-29-53-13.72-210.45-22.82-239.27,12.18-26.07,31.66-17.68,94.38-26.56,143.22l-5.34,74.6-3.48,64c-1.18,77.72,11.72,130.89,54.75,165.72l49.06,40.91c51.57,37,141.82,92,151.58,164.65L2690.34,1495l-25.72-25c-50.28-40.5-100.11-68.19-161.83-99.14-18.12-9.09-46-25.53-75.45-20.78-25.85,4.17-45.08,14.71-64.37,25.34-23.37,12.9-50,22.34-77.9,30.07-112,31-256.43-12-310.46-68.44-60-62.67-93.12-189-46.94-293.62,8.34-18.9,30.74-60.44,50.65-64.92l-13.85,25.24c-9.39,19.88-18.27,40.8-24.53,63.65-20.92,76.39-1.3,163.21,29.63,213,16.56,26.62,43.74,51.63,74,65.06,99.56,44.28,275.87,47.9,339.68-27.15,12-14.11,23.78-28.19,30.18-48,5.53-17.07,2.41-36.94,5.9-56.54l11.33-193.5L2442,881.72l13-135.22,11.82-113.89c17.74-93.81,22.56-190.87,55.4-269.18,32.47-77.44,85-130.36,155.76-169.28,54.39-29.94,126.49-37.21,188.63-59.67,68.05-24.6,128.27-51.55,179.85-91.8ZM1292.14,4118.93c5.47-9.88,27.23-9.57,40.58-11.73,45.93-7.42,90.39,11.1,120,26.33,95,48.87,155.19,132.34,208,221.25,16.16,26.76,94.67,181.53,110.82,208.3l-42.92-.62c-8.51-28-97.82-189.76-113.26-214.07-46.32-72.94-137.17-179.77-221.56-214.06-19-7.69-40.79-10.72-63.76-14.86ZM1733.37,24.74l43.78-.19c20.08,36.27,73.22,78.89,117.3,92.76,109.6,34.49,246.61-41,301-86.79l31.13,1.27-1.71,1.62c-9.79,19.78-34.46,36.72-52.09,49.31-65.37,46.68-193.1,104.09-303.14,60.5-42.88-17-80.81-42.92-106.61-76.2Zm42.38,2668.35c3.1-9.2,16.4-15.54,23.06-21.83,14.6-13.79,29.44-29.67,41.1-46.18,34.43-48.75,59.19-110.77,80-172,44.56-130.88,78.21-268.47,115.55-406.18,22.33-82.37,24.43-170.71,69.93-227.94,42.64-53.63,140.23-84.06,216.94-38.76,63.27,37.37,124.07,94,146.46,169.5,19.82,66.8-9.77,132-57,151-47.54,19.1-93.17-7.31-124.21-25.57-44.62-26.25-123.9-38.21-173.28-9-16.76,9.9-29.92,25.72-40.2,42.1-19.88,31.66-30.08,72.4-42.91,110.16-41.47,122.06-66.94,269.92-131.84,369.85C1871.11,2631.73,1832.5,2679,1775.75,2693.09Zm308.71-711.15c6.05,14.94,6.05,26.75,18.84,34.74,27.48,17.15,82.94-4.38,120.32,4.18,54.54,12.48,121.12,77.69,178.7,41.12,13.4-8.51,22.83-20.18,26.67-38.19,6-28.11-4.6-62.58-12.23-82.23-26.63-68.64-141.36-185.79-248.78-139C2115.64,1825.43,2085.19,1907.27,2084.46,1981.94ZM3028.17,3159l-.7,45.94c-48.79-.81-100.95-3.73-145.46-11.92-55.66-10.24-108.72-10.66-159.6-23.62-22.85-5.82-97.24-33.61-120.85-24.7-24,9.05-23.54,40.35-28.81,68.52-12.67,67.66,35.29,80.41,99.11,71.17,110.67-16,232.72-11.35,354.57-9.71L3026,3301c-37.09-1.49-80.71-6-117-.85l-123.89,8.9-126.45,11.32c-168.86,24.79-347.81-5.57-422.8-99.58-33.93-42.54-79.26-118.21-55.88-202.67,22.56-81.5,123.14-119.84,217.56-79.77,82.49,35,125.62,106.27,200.67,147.29,41.12,22.48,91.14,30.26,144.16,42.27C2828,3147.26,2927.49,3157.4,3028.17,3159Zm-824.63-82.35,2.21,21.37a237.34,237.34,0,0,0,14.46,46.16c32.29,73.8,94.33,108,179.85,132.22,38.33,10.84,109,27.82,131.44-7.15,13.12-20.43,6.17-53.54,11.34-82.72s2.46-70.07-6.2-91.17c-19.93-48.54-111.94-110.18-167.29-127.94C2272.32,2936.31,2204.08,2982.2,2203.54,3076.67Zm72,978.35c.55-230.47,178.56-264.26,356.64-315.75,109.14-31.56,244.75-65.26,387.92-44.52l-.44,29.54c-118.57-19.95-226.35,4.67-319.54,31.54-64.77,18.67-127.28,36.32-186.11,59.7-69.19,27.51-134.14,56.73-171.79,115.72-39,61.15-32.95,155-6.72,223.1,15,39,39.39,90.19,77.52,107,27.36,12,61.9,5.12,98.33,11.26l70.68,2.65c36.71,6.2,77.32,3.47,111.82,9.8,58,10.64,110.11,15.84,155.2,35.86,11.38,5.05,32.1,11.65,35.85,23.49-18.29-4.47-37.27-14.71-57.79-19.7-26.35-6.41-54.37-6.14-83.18-11l-41.23-1.41-85.85-1.22c-33.16,4.63-67.39-1.65-97.7,2.71-50.31,7.23-103.74,4.59-129.34,35.9-18,22,42.69,177.08,38.92,213.9l-46.29-.66V4562c5.31-17.63-59.79-194.73-62.51-212.6l-6.54-69c-8.53-45-17.34-88.69-27.49-131.69l-9.09-67.42Zm181.1-1463,1.73-3.26c18.39-2.31,39.17-5.11,59.9-8.17,38.18-5.64,76.58-.16,112.06-6.61,47.63-8.65,90.88-19.6,130.19-35.89,42.06-17.42,74.18-47.49,109.67-71.46,43.68-29.5,109.64-62,169.47-73.08l-.61,41-47.36,14.09c-38,12.62-72,25-103.36,43.66-29.84,17.76-56.12,41-86.75,58.66-64.38,37.11-145.61,48-249.89,46.49Zm57.25,1511.52c7.57-10.45,30-15.09,41.58-21.56,25-13.94,47-29.91,68.89-46.61,19-14.48,34.17-37,48.83-55.93,43.69-56.32,85.37-112,158.67-138.87,61.54-22.56,128.21-11.24,169.73,21.3l15.81,12.53-1.1,73-1.67-.85c-4.35-17-15.78-30.78-25.45-43-38.05-48.21-104.51-52.66-168.82-26.21-88.51,36.41-130.45,139.59-207.45,191.52C2594,4081.64,2547.94,4111.62,2513.9,4103.56ZM1304.49,4563.51c-9.51-6-10-8.78-2.28-17.39,30.17-33.75,55.16-70.74,72.93-112.12,6.81-15.87,14-31.84,14.43-49.48,1-42-38.84-80.22-83.77-81.05-19.43-.36-37,5.72-53.84,14.05-46.1,22.74-72.86,58.64-76.44,109.47-1.76,25,11.87,42.15,36.81,47.82,22.62,5.15,43.79.54,63.77-10.19,17.85-9.59,27.73-24.9,31.63-44,3.86-18.86-4.8-28.75-24.39-28.48a63.64,63.64,0,0,0-7.17.49c-6.49.8-13,2-19.46,2.4-2.18.12-4.79-1.51-6.59-3-.75-.63-.55-3.56.3-4.59,4.22-5.06,9.2-9.36,16.48-9,8,.41,16.17.64,24.08,2,21.8,3.72,43.23,21.57,36.36,48.91-2.38,9.45-6.48,19.37-12.61,26.9-28,34.49-64.86,50.27-110.08,44.07-33.09-4.54-54.65-23.15-63.91-54.59a163.61,163.61,0,0,1-.18-92.69c15.37-53.78,46.59-94.88,101.9-115.09,30.71-11.23,62.88-13.9,93.89-3.76,49,16,79.32,50.42,91.82,99.29,8.23,32.19,1.61,62.24-14.32,91.13-17.43,31.62-39.27,60.27-60.93,89.08-1.4,1.87-2.73,3.79-5,6.93,4.28-.67,6.65-1,9-1.42"/></g></g></svg>