<?xml version="1.0" encoding="UTF-8"?>
<svg id="Layer_2" data-name="Layer 2" xmlns="http://www.w3.org/2000/svg" viewBox="0 0 897.54 1275.59">
  <defs>
    <style>
      .cls-1 {
        fill: #0b113d;
        fill-rule: evenodd;
      }

      .cls-2 {
        fill: #fcdc43;
      }
    </style>
  </defs>
  <g id="Layer_1-2" data-name="Layer 1">
    <g>
      <path class="cls-1" d="M448.09,998.38c-.56,0-1.12.01-1.68.02.26.45.58,1.03.83,1.48.27-.46.59-1.04.85-1.5ZM570.83,1003.6c-17.88,31.86-34.21,60.75-47.07,82.97-14.86,25.66-43.44,47.09-76.52,47.09-33.07,0-61.64-21.43-76.5-47.09-12.81-22.13-29.07-50.91-46.86-82.61-93.34,8.35-175.37,25.84-233.77,49.82C31.7,1077.77.08,1106.96,0,1136.98c0,36.77,47.29,72.02,131.45,98.02s198.31,40.6,317.33,40.6,233.16-14.61,317.32-40.6c84.16-26,131.44-61.25,131.44-98.02,0-30.19-31.92-59.55-90.89-83.62s-141.77-41.54-235.82-49.75Z"/>
      <path class="cls-1" d="M447.25,0C247.42,0,85.43,163.07,85.43,364.22c.03,72.42,21.51,142.74,98.95,278.19,60.06,105.07,178.28,321.3,233.59,416.83,15.32,26.47,43.23,26.47,58.56,0,55.32-95.54,173.52-311.76,233.58-416.83,77.44-135.45,98.93-205.77,98.95-278.19C809.06,163.07,647.07,0,447.25,0Z"/>
      <circle class="cls-2" cx="448.77" cy="362.33" r="238.69"/>
    </g>
  </g>
</svg>