<?xml version="1.0" encoding="UTF-8"?>
<svg id="Layer_1" data-name="Layer 1" xmlns="http://www.w3.org/2000/svg" viewBox="0 0 5143.61 4002.51">
  <defs>
    <style>
      .cls-1 {
        fill: #0b113d;
      }

      .cls-1, .cls-2, .cls-3 {
        fill-rule: evenodd;
      }

      .cls-2 {
        fill: #fff;
      }

      .cls-4 {
        fill: #fcdc43;
      }
    </style>
  </defs>
  <path class="cls-2" d="M0,4002.51h5143.61V1752.51H0v2250Z"/>
  <path class="cls-3" d="M1339.59,195.3c-236.02,0-427.35,191.33-427.35,427.34.04,84.97,25.41,167.47,116.87,326.4,70.94,123.27,210.56,376.97,275.89,489.06,18.1,31.06,51.06,31.05,69.16,0,65.33-112.09,204.95-365.79,275.89-489.05,91.46-158.93,116.83-241.43,116.87-326.4,0-236.01-191.33-427.34-427.34-427.34ZM1339.59,446.87c106.73,0,193.26,86.53,193.26,193.26,0,51.26-20.36,100.42-56.61,136.66-36.24,36.24-85.4,56.61-136.65,56.6-106.74,0-193.27-86.53-193.27-193.26,0-106.73,86.53-193.26,193.27-193.26Z"/>
  <path class="cls-3" d="M3622.14,238.59v513.35l290.3.69c11.47.04,22.46,4.58,30.61,12.65l143.44,142.3,108.74-96.05c1.91-1.66,3.97-3.15,6.15-4.44l-259.06-568.5h-320.18ZM4038.27,238.59l117.5,257.85,291.88-257.85h-409.38ZM4579.51,238.59l-385.9,340.9,197.47,433.33c3.81-1.11,7.75-1.7,11.71-1.74l450.67.97V238.59h-273.95ZM3622.14,839.22v630.7h200.14l118.21-423.98c2.26-8.13,6.84-15.43,13.17-21.01l67.27-59.43-126.65-125.63-272.14-.65ZM4238.9,889.4l-217.78,192.39-108.21,388.13h590.53l-264.54-580.52ZM4430.08,1098.42l169.29,371.5h254.09v-370.59l-423.38-.91Z"/>
  <path class="cls-1" d="M3516.89,0c90.36,0,163.63,73.75,163.63,164.72,0,43.69-17.24,85.58-47.93,116.47-30.69,30.89-72.3,48.25-115.7,48.25-90.37,0-163.63-73.75-163.63-164.72S3426.51,0,3516.89,0Z"/>
  <g>
    <path class="cls-1" d="M2693.85,1222.1c-.56,0-1.12.01-1.68.02.26.45.58,1.03.83,1.48.27-.46.59-1.04.85-1.5ZM2816.59,1227.32c-17.88,31.86-34.21,60.75-47.07,82.97-14.86,25.66-43.44,47.09-76.52,47.09-33.07,0-61.64-21.43-76.5-47.09-12.81-22.13-29.07-50.91-46.86-82.61-93.34,8.35-175.37,25.84-233.77,49.82-58.41,23.99-90.03,53.18-90.11,83.2,0,36.77,47.29,72.02,131.45,98.02s198.31,40.6,317.33,40.6,233.16-14.61,317.32-40.6c84.16-26,131.44-61.25,131.44-98.02,0-30.19-31.92-59.55-90.89-83.62s-141.77-41.54-235.82-49.75Z"/>
    <path class="cls-1" d="M2693.01,223.72c-199.83,0-361.82,163.07-361.82,364.22.03,72.42,21.51,142.74,98.95,278.19,60.06,105.07,178.28,321.3,233.59,416.83,15.32,26.47,43.23,26.47,58.56,0,55.32-95.54,173.52-311.76,233.58-416.83,77.44-135.45,98.93-205.77,98.95-278.19,0-201.15-161.99-364.22-361.81-364.22Z"/>
    <circle class="cls-4" cx="2694.53" cy="586.04" r="238.69"/>
  </g>
</svg>