<svg xmlns="http://www.w3.org/2000/svg" viewBox="0 0 184.82 102.97"><defs><style>.cls-1{fill:#231f20;}.cls-2{fill:#fff;}</style></defs><title>Asset 1</title><g id="Layer_2" data-name="Layer 2"><g id="Layer_1-2" data-name="Layer 1"><ellipse class="cls-1" cx="92.41" cy="51.48" rx="92.41" ry="51.48"/><ellipse class="cls-2" cx="92.41" cy="51.49" rx="84.82" ry="48.66"/><path class="cls-1" d="M40.1,73.32a3.84,3.84,0,1,1,3.83-3.83A3.83,3.83,0,0,1,40.1,73.32Zm0-7.08a3.25,3.25,0,1,0,3.24,3.25A3.25,3.25,0,0,0,40.1,66.24Z"/><path class="cls-1" d="M38.39,71.46v-3.7a.42.42,0,0,1,.13-.3.4.4,0,0,1,.31-.13H40.4a1.46,1.46,0,0,1,1,.29,1.1,1.1,0,0,1,.34.88,1.14,1.14,0,0,1-.17.63.83.83,0,0,1-.46.35.64.64,0,0,1,.39.29,1.35,1.35,0,0,1,.13.61l0,.49a1.56,1.56,0,0,0,0,.31.36.36,0,0,0,.14.28h-.94a1.17,1.17,0,0,1-.07-.25c0-.13,0-.22,0-.27V70.5a1,1,0,0,0-.15-.52.66.66,0,0,0-.46-.13h-.9v1.61Zm.86-2.33h1a.71.71,0,0,0,.48-.13.61.61,0,0,0,0-.82.62.62,0,0,0-.43-.14h-1Z"/><path class="cls-1" d="M153,52.51l2.77.25a3.73,3.73,0,0,1-.14.44c-2.09,4.89-4.16,9.78-6.26,14.66a18.83,18.83,0,0,1-3.38,5.6,5,5,0,0,1-4.31,1.94,5.9,5.9,0,0,1-3.4-1.6,2.16,2.16,0,0,1-.34-.47c-2.38,1.78-4.86,2.74-7.74,2.27s-4.78-2.43-6-5c-.88,1.29-1.71,2.62-2.66,3.86a12.55,12.55,0,0,1-4.08,3.69c-3.13,1.62-7.61,1.6-10.42-1.46a9.55,9.55,0,0,1-2.4-5.33c-.08-.53-.1-1.06-.15-1.68-.27.32-.48.6-.71.86a13.41,13.41,0,0,1-5,4,8.3,8.3,0,0,1-9.4-1.85,9.43,9.43,0,0,1-2.07-3.85l-.13-.45c-.67,1.14-1.27,2.29-2,3.36a9.88,9.88,0,0,1-1.83,2.09A6.3,6.3,0,0,1,78,75.08a4.8,4.8,0,0,1-3.3-2.93,9.07,9.07,0,0,1-.42-6.93C75.58,61.11,77,57,78.35,52.93a16.09,16.09,0,0,0,.47-2.19.73.73,0,0,0-.59-.92c-.9-.27-.89-.28-.81-1.23.12-1.39.12-1.39,1.48-1.59L86,45.9c.27,0,.53-.16.8-.2s.44-.06.49,0a.67.67,0,0,1,0,.54c-.19.56-.44,1.09-.63,1.65-2.13,6.14-4.28,12.28-6.35,18.45a17,17,0,0,0-.66,3.85,1.09,1.09,0,0,0,1.73,1.08A4.8,4.8,0,0,0,83,69.87a27.85,27.85,0,0,0,1.87-3.39A97.55,97.55,0,0,0,89.41,55c.83-2.51,2-4.91,3-7.36.44-1.06.47-1.06-.37-1.83a3,3,0,0,1-1.26-2,1.21,1.21,0,0,1,.53-1.24,1.1,1.1,0,0,1,1.28.1l1.41,1c1.2-2.06,2.36-4.07,3.55-6.06a15.25,15.25,0,0,1,1.09-1.45,6.59,6.59,0,0,1,5.26-2.62,9.31,9.31,0,0,1,6.21,1.86,6.32,6.32,0,0,1,2.41,4.24.63.63,0,0,0,.44.59,7.42,7.42,0,0,1,1.24.79l.53.34c.92-1.61,1.78-3.2,2.72-4.74a34.56,34.56,0,0,1,2.12-3,6.34,6.34,0,0,1,4.87-2.38,9.87,9.87,0,0,1,5.48,1.24,6.86,6.86,0,0,1,2.87,8.61,9.57,9.57,0,0,1-7.6,6,12.21,12.21,0,0,1-4.59,0,.72.72,0,0,0-.92.42,146.18,146.18,0,0,0-7,16.41,28.37,28.37,0,0,0-1.32,6,4.94,4.94,0,0,0,1.18,4.25,3.06,3.06,0,0,0,2.84,1A5.77,5.77,0,0,0,119,72.94,34.42,34.42,0,0,0,123,66.47a5.13,5.13,0,0,0,.32-1.92,33.12,33.12,0,0,1,1.84-7,23.59,23.59,0,0,1,5.5-8.63,8.22,8.22,0,0,1,6.84-2.59,9.59,9.59,0,0,1,4.87,1.78l.39.3c.14-.26.29-.49.4-.73a1,1,0,0,1,1-.63l5.26,0c.75,0,1,.27.68,1-.61,1.53-1.24,3.06-1.94,4.55a116.85,116.85,0,0,0-5.76,14.06c-.2.62-.36,1.26-.5,1.9a3.47,3.47,0,0,0,.26,2.2,1.3,1.3,0,0,0,1.67.52A2,2,0,0,0,145,70.25c1.1-2.33,2.22-4.66,3.28-7,1.58-3.52,3.11-7.07,4.66-10.6A.52.52,0,0,1,153,52.51Zm-40.76-9.45a1.17,1.17,0,0,0-.11.16,9.53,9.53,0,0,1-7.56,6.06,12.05,12.05,0,0,1-4.44,0c-.84-.14-.93-.09-1.29.67-.44.95-.89,1.89-1.31,2.85a45.67,45.67,0,0,0-3.72,13,5.62,5.62,0,0,0,.51,3.4,2.64,2.64,0,0,0,2.54,1.6A5.74,5.74,0,0,0,100,69.65a13.87,13.87,0,0,0,4.1-4.75c1.15-2,2.14-4.16,3.1-6.29,2-4.47,4-9,6-13.45.38-.87.38-.87-.31-1.51Zm16.26,26.63a2.78,2.78,0,0,0,0,.37,2.25,2.25,0,0,0,1.17,2.17,1.91,1.91,0,0,0,2.35-.39A8.67,8.67,0,0,0,133.53,70c.93-1.75,1.77-3.57,2.6-5.38,1.6-3.49,3.2-7,4.45-10.61a3.88,3.88,0,0,0-.18-3.23,1.75,1.75,0,0,0-3-.46,12.22,12.22,0,0,0-1.67,2.29,100.41,100.41,0,0,0-6.47,13.52A10.91,10.91,0,0,0,128.49,69.69ZM121.28,43a2,2,0,0,0,.38,0,6.92,6.92,0,0,0,3.14-1.3,7.5,7.5,0,0,0,3.26-5.91c0-.4,0-.82-.42-1a1,1,0,0,0-1.08.27,3.45,3.45,0,0,0-.72.65c-.71,1-1.43,1.95-2.06,3C122.92,40.08,122.14,41.52,121.28,43Zm-20.7,2.34c.3,0,.5,0,.69-.09a7.83,7.83,0,0,0,6.1-7.06c0-.44,0-.88-.42-1.12a.93.93,0,0,0-1.15.29,19.79,19.79,0,0,0-1.93,2.27c-.74,1.09-1.37,2.26-2,3.41C101.43,43.79,101,44.54,100.58,45.36Z"/><path class="cls-1" d="M62,63.88c.58-1.68,1.11-3.24,1.66-4.79q4.72-13.5,9.48-27a9.5,9.5,0,0,1,4.11-4.91,40.61,40.61,0,0,1,8.56-4.3c.14,0,.28-.12.5-.22-.33-.13-.59-.26-.87-.34a50.2,50.2,0,0,0-14-2.15A26.59,26.59,0,0,0,62,22.27c-1,.38-2,.87-3.07,1.28a3.63,3.63,0,0,1-1.18.22c-.56,0-.76-.34-.54-.87a2.46,2.46,0,0,1,1.25-1.21,18.39,18.39,0,0,1,6.09-2.07,45,45,0,0,1,13.8.41c2.75.54,5.45,1.26,8.17,1.93a3.77,3.77,0,0,0,2.23-.1c1.43-.49,2.86-1,4.32-1.39a11,11,0,0,1,7.83.74,5.22,5.22,0,0,1,2.19,2.05,2,2,0,0,1,0,2.2,2.07,2.07,0,0,1-2.08,1,34.21,34.21,0,0,1-8-1.8,33.59,33.59,0,0,0-4-.89,1.2,1.2,0,0,0-.68.14,14.29,14.29,0,0,0-6,5.37,29,29,0,0,0-3.1,7.16c-2.34,7-4.75,13.9-7.07,20.86-1.81,5.4-3.6,10.81-5,16.34a10.2,10.2,0,0,0-.35,1.88,2.71,2.71,0,0,0,2.76,3.11l.45,0a.87.87,0,0,1,.88,1.24.63.63,0,0,1-.68.54c-3,0-5.94,0-8.91,0a1.4,1.4,0,0,1-1.41-1.13q-.84-2.22-1.66-4.45c-3-8-6-16.11-9-24.14a8.71,8.71,0,0,1,.08-7c.07-.16.14-.34.26-.65l-.62.26a60.16,60.16,0,0,1-7.93,3,9.77,9.77,0,0,1-7.28-.53,10.46,10.46,0,0,1-6.08-8.67,10.72,10.72,0,0,1,1.9-7c2.51-3.8,6.23-5.43,10.64-5.63a13.27,13.27,0,0,1,7.16,1.65A5.62,5.62,0,0,1,50.41,32a8.73,8.73,0,0,1-5.3,7.51,5.56,5.56,0,0,1-2.29.47,3.17,3.17,0,0,1-3.15-3.6,14.7,14.7,0,0,1,.26-1.85,1.54,1.54,0,0,1,1-1.08c.09,0,.32,0,.36.06a.92.92,0,0,1,.12.55c-.14.48-.35.95-.52,1.42a5.43,5.43,0,0,0-.17.53c-.35,1.47.26,2.3,1.78,2.34a4.82,4.82,0,0,0,3.94-1.6,6.73,6.73,0,0,0,1.89-4.62,3.4,3.4,0,0,0-3.06-3.62,10,10,0,0,0-9.77,3.82,8.88,8.88,0,0,0-2,3.81,6.65,6.65,0,0,0,4.82,7.73,10.94,10.94,0,0,0,4.07-.21,32.75,32.75,0,0,0,9.91-3.51c.79-.42,1-.34,1.3.48q3.56,9.78,7.13,19.56C61.13,61.35,61.56,62.56,62,63.88ZM89.58,22.59v.24c.88.25,1.75.52,2.64.75a43.59,43.59,0,0,0,6.86,1.63,7.7,7.7,0,0,0,2.91,0c.72-.21.93-.54.66-1.24a3.29,3.29,0,0,0-1.84-1.84,10.73,10.73,0,0,0-4.07-.91,18.21,18.21,0,0,0-4.63.7C91.26,22.09,90.42,22.35,89.58,22.59Z"/><path class="cls-1" d="M90.88,34.79A3.8,3.8,0,0,1,87,38.63a3.44,3.44,0,0,1-3.31-3.71,3.9,3.9,0,0,1,3.62-3.82A3.42,3.42,0,0,1,90.88,34.79Z"/><path class="cls-1" d="M161,61.87c.35-1,.73-1.93,1.08-2.9.44-1.22.87-2.45,1.3-3.68l.88-2.43a2.75,2.75,0,0,0,.09-.45l-.63.12-1.63.3s-.09,0-.1.05a2.79,2.79,0,0,0-.1.39.13.13,0,0,0,.06.12.18.18,0,0,1,.16.18,1.14,1.14,0,0,1,0,.41c-.41,1.13-.82,2.26-1.24,3.39l-.08.2a2.26,2.26,0,0,0-.41-.3,2.1,2.1,0,0,0-2.53.37,7.53,7.53,0,0,0-1.74,2.84c-.26.71-1.11,5,2.55,4,.09.18.18.36.28.53a1.34,1.34,0,0,0,.9.62A33.1,33.1,0,0,1,161,61.87Zm-2.15.87a5.49,5.49,0,0,1-.51.78c-.18.22-.48.31-.65.16-.32-.26-.16-1.52,0-2a14.72,14.72,0,0,1,.82-2.08,5.28,5.28,0,0,1,1-1.38.55.55,0,0,1,.47-.19.44.44,0,0,1,.41.47,2.67,2.67,0,0,1-.1.64A32.92,32.92,0,0,1,158.87,62.74Z"/><path class="cls-1" d="M157.9,69.36l-.23,0c-.29,0-.33,0-.45.29q-.74,1.75-1.5,3.51a5.15,5.15,0,0,1-.49.89,1.28,1.28,0,0,1-.42.38.31.31,0,0,1-.5-.29,5.45,5.45,0,0,1,.19-1.07c.57-1.71,1.17-3.4,1.76-5.11.05-.15.12-.31.18-.46a.22.22,0,0,0,0-.14s-.08,0-.12,0l-.24.06-2,.31c-.35,0-.36,0-.39.42s0,.27.24.36.17.11.15.22a4.4,4.4,0,0,1-.13.63A25.58,25.58,0,0,0,152.87,74a1.31,1.31,0,0,0,.95,1.42,1.63,1.63,0,0,0,1.65-.43,3.88,3.88,0,0,0,.69-1,20.72,20.72,0,0,0,1.22-2.72c.22-.57.46-1.13.68-1.69C158.13,69.45,158.08,69.37,157.9,69.36Z"/><path class="cls-1" d="M156.5,65.72a1,1,0,0,1-1.05,1.07,1,1,0,0,1-.92-1,1.08,1.08,0,0,1,1-1A1,1,0,0,1,156.5,65.72Z"/></g></g></svg>