<svg xmlns="http://www.w3.org/2000/svg" viewBox="0 0 184.82 102.97"><defs><style>.cls-1{fill:#231f20;}.cls-2{fill:#fff;}</style></defs><title>Asset 2</title><g id="Layer_2" data-name="Layer 2"><g id="Layer_1-2" data-name="Layer 1"><ellipse class="cls-1" cx="92.41" cy="51.48" rx="92.41" ry="51.48"/><ellipse class="cls-2" cx="92.41" cy="51.49" rx="84.82" ry="48.66"/><path class="cls-1" d="M154.58,42.36h0a.78.78,0,0,0-.8-.63H148c-8.82.27-13.48,4.37-13.48,11.89a8,8,0,0,0,7.7,7.85A6.7,6.7,0,0,0,148,58.56v.95c0,2.78-1.06,4.19-3.14,4.19H128.5c-3,0-5-4.12-5-7V44.09l-8.24,1.55,1.4.5c1.84.64,1.84.74,1.84,1.53v12c0,2.72-1,4-3.18,4h-3.16c-3,0-5-4.12-5-7V36a22.14,22.14,0,0,1,2.89-1.46l1.35.25c1.34.25,7.76,2.12,9.67,2.56a22.08,22.08,0,0,0,5.64.81,3.21,3.21,0,0,0,2.67-4.84,7.27,7.27,0,0,0-3.11-2.89,15,15,0,0,0-10.77-1c-1.64.44-3.28,1-4.86,1.54l-1,.34a4.75,4.75,0,0,1-2.77.11l-2.23-.56c-2.85-.71-5.8-1.45-8.73-2a63.14,63.14,0,0,0-11.63-1.21A39.25,39.25,0,0,0,72.5,29.67c-1.73.58-4.13,1.54-5.24,3.06a1.3,1.3,0,0,0-.27.92c.13.79,1.06,1.09,1.75,1A17.47,17.47,0,0,0,73.2,33c1.36-.59,2.79-1,4.2-1.5a30.5,30.5,0,0,1,9.21-1.63h.09a66.78,66.78,0,0,1,18.72,2.87l.23.08a50.82,50.82,0,0,0-7.44,3.34l2.94,1c1.1.42,1.11.6,1.11,1.27v21.3c0,2.72-1,4-3.18,4H96.56V39.26l-8.23,1.56,1.4.49c1.83.64,1.83.86,1.83,1.78V63.7H89.07l-1.66,2.56H99.94c3.5,0,6-1.15,7.14-3.33a7.4,7.4,0,0,0,5.9,3.33h3.25c3.49,0,5.94-1.15,7.13-3.33a7.42,7.42,0,0,0,5.9,3.33H146c4.38,0,6.89-2.4,6.89-6.6V43.75a1.66,1.66,0,0,1,.49-.11l.27,0a1,1,0,0,0,.8-.39A1,1,0,0,0,154.58,42.36Zm-6.66,10c0,3.65-2.12,6.77-4.6,6.81-2.39-.12-3.82-3.07-3.82-5.86,0-6.85,4.28-9.29,8.29-9.29h.13ZM112.2,32.74c.77-.23,1.54-.45,2.32-.64a23.83,23.83,0,0,1,6.1-.92,14,14,0,0,1,5.3,1.18,4,4,0,0,1,2.26,2.26.92.92,0,0,1,.08.72c-.07.16-.31.29-.7.41a7.91,7.91,0,0,1-3.07.08l-.69-.06a33,33,0,0,1-6.41-1.42c-.91-.26-1.82-.52-2.73-.76s-1.62-.44-2.42-.67l-.34-.1Z"/><path class="cls-1" d="M49.74,69.81a2.81,2.81,0,1,0,2.79,2.84A2.77,2.77,0,0,0,49.74,69.81Z"/><path class="cls-1" d="M42.82,69.81A2.75,2.75,0,0,0,40,72.65a2.83,2.83,0,1,0,2.83-2.84Z"/><path class="cls-1" d="M59.72,45l-.08.33-.31-.13a8.88,8.88,0,0,0-4.38-1c-3.9,0-7.32,2.82-7.32,6,0,1.94.11,2.22,1.56,5.37l.49,1.06c.75,1.6,1.75,3.75,3.15,7.12H40.94c-1.88-.13-2.83-1.35-2.83-3.61V47.21l-8.44.37V50h.4c2.83,0,3,.42,3,1.13V59.9c0,4.22,2.53,6.36,7.51,6.36H58.93l-.22-.54C56,59,52.2,50.27,52.15,50.17a1.93,1.93,0,0,1-.15-.78c0-1.65,2-2.85,3.38-2.85,3.06,0,4.09,3.44,4.43,5.49l.06.34h3V43.74h-3.1Z"/><path class="cls-1" d="M76.78,44.22h-.1A6.13,6.13,0,0,0,72,46.69c-2,2.31-2.8,2.5-3.83,2.54l-.48,0,1.17,5.07.51-.74c2.42-3.48,5.1-7,6.7-7,1.94,0,2.66,3.17,2.66,11.68V63.7H64.41l2.15,2.56H84.24V64.62C84.24,57.05,83.27,44.32,76.78,44.22Z"/><path class="cls-1" d="M114.36,69.86a2.81,2.81,0,1,0,0,5.62,2.81,2.81,0,1,0,0-5.62Z"/><path class="cls-1" d="M121.24,69.86a2.81,2.81,0,1,0,2.83,2.79A2.75,2.75,0,0,0,121.24,69.86Z"/><path class="cls-1" d="M145.79,38.09A2.89,2.89,0,1,0,143,35.2,2.86,2.86,0,0,0,145.79,38.09Z"/><path class="cls-1" d="M22.52,66.25A5.27,5.27,0,1,1,27.79,61,5.28,5.28,0,0,1,22.52,66.25Zm0-9.74A4.47,4.47,0,1,0,27,61,4.47,4.47,0,0,0,22.52,56.51Z"/><path class="cls-1" d="M20.17,63.7V58.61a.62.62,0,0,1,.6-.6h2.16a2,2,0,0,1,1.37.4,1.54,1.54,0,0,1,.46,1.21,1.56,1.56,0,0,1-.23.87,1.12,1.12,0,0,1-.63.48.9.9,0,0,1,.53.4,1.87,1.87,0,0,1,.18.84l0,.68a3.12,3.12,0,0,0,0,.43.55.55,0,0,0,.2.38H23.57a1.13,1.13,0,0,1-.09-.35,2.47,2.47,0,0,1,0-.36v-.62a1.43,1.43,0,0,0-.2-.71.92.92,0,0,0-.65-.18H21.35V63.7Zm1.18-3.21h1.37a1,1,0,0,0,.66-.18.85.85,0,0,0,0-1.12.83.83,0,0,0-.6-.2H21.35Z"/></g></g></svg>